<?xml version="1.0" encoding="UTF-8"?>
<svg version="1.1" id="Layer_1" xmlns:x="http://ns.adobe.com/Extensibility/1.0/" xmlns:i="http://ns.adobe.com/AdobeIllustrator/10.0/" xmlns:graph="http://ns.adobe.com/Graphs/1.0/" xmlns="http://www.w3.org/2000/svg" xmlns:xlink="http://www.w3.org/1999/xlink" xmlns:a="http://ns.adobe.com/AdobeSVGViewerExtensions/3.0/" x="0px" y="0px" width="920.9541px" height="794.95996px" viewBox="12.33887 65.58789 920.9541 794.95996" enable-background="new 12.33887 65.58789 920.9541 794.95996" xml:space="preserve">
<g>
	<path fill="#5F8291" d="M574.71875,143.10303c0,0,32,21.99902,41.33203,51.33203c0,0,20,0.66699,30,6   c0,0-10.66602-11.33203-20.66602-10.66602c0,0-8-1.33398-8-5.33398c0,0,22.66602-4.66602,30.66602,0.66797   c0,0-18.66602-21.33398-42.66602-20.66797c0,0-6-1.33203-8-5.33203c0,0,12-8,18-8   C615.38477,151.10303,591.38477,141.76904,574.71875,143.10303z"/>
</g>
<g>
	<path fill="#5F8291" d="M598.88477,325.68506c0,0,5.5,43.75,2.5,58.08398c0,0-1.3418,20.79346-5,31.1665   c-11.01953,31.24219-13.22852,38.52734-13,41.5C583.63477,459.68555,644.88477,381.68506,598.88477,325.68506z"/>
</g>
<g>
	<path fill="#5F8291" d="M514.55078,324.93604c0,0,10.5-34.16797,40.5-34.83398c0,0-40,35.33398-42,80.66602   c-1.54102,16.16309-2.86719,32.9585-1.31055,49.15381c0.31836,3.31445,1.98828,6.80078,1.99023,10.00977   c-11.01367,6.16992-12.92383-14.32813-14.08594-22.00781c-2.59375-17.15576-1.29688-32.7085,4.40625-49.48877   c4.99414-14.69141,12.52148-28.37793,19.83398-41.49902C523.88477,316.93604,522.2168,316.27002,514.55078,324.93604z"/>
</g>
<g>
	<path d="M517.05078,329.43604"/>
</g>
<g>
	<path fill="#965046" d="M507.13477,590.43555c0,0,9.58203,18.5,7.66602,25.375c-1.91797,6.875,6.20703-18.5,6.08203-21.375   C520.88281,594.43555,510.13477,591.18555,507.13477,590.43555z"/>
</g>
<g>
	<path fill="#231F20" d="M514.65527,617.03906c-0.00488,0,0.02246-0.07422,0.05859-0.32422l0,0   c0.03516-0.24805,0.07129-0.64746,0.07129-1.2168l0,0c0.00195-2.95215-1.01074-10.51855-8.47363-25.71777l0,0l0.89648-0.44141   c7.50391,15.28809,8.5752,22.98047,8.57715,26.15918l0,0c0,1.22559-0.15918,1.78027-0.17383,1.83301l0,0L514.65527,617.03906   L514.65527,617.03906z"/>
</g>
<g opacity="0.81" enable-background="new    ">
	<path fill="#EABA91" d="M456.04297,548.55469c-0.55469,2.2207-2.29688,3.41797-6.13281,4.09375   c-2.45898,0.43359-5.24805,0.12305-8.50586-0.15039c-2.69922-0.22461-5.58594-0.12891-8.56641-0.87695   c-2.97852-0.74609-5.66602-1.75391-8.15234-2.82617c-3.00293-1.29492-5.78711-2.30664-7.75098-3.84766   c-3.06445-2.4043-5.4375-5.19141-4.88184-7.41016c0.55664-2.2207,4.18262-2.31055,8.01855-2.98633   c2.45801-0.43359,5.20703-1.70508,8.46387-1.43164c2.7002,0.22461,5.60059,0.68359,8.58008,1.42969   c2.98047,0.74609,5.76367,1.68555,8.25,2.75781c3.00195,1.29492,5.65234,2.67383,7.61523,4.21484   C456.04492,543.92578,456.59961,546.33594,456.04297,548.55469z"/>
</g>
<g opacity="0.8" enable-background="new    ">
	<path fill="#EABA91" d="M594.14648,587.94336c-0.83203,2.13086-2.55664,2.64063-6.44727,2.82813   c-2.49219,0.11914-5.64453,2.0957-8.8418,1.41406c-2.65039-0.56445-5.33984-2.26563-8.20117-3.38281   c-2.86328-1.11719-5.01172-3.3457-7.34375-4.72266c-2.81445-1.66406-4.86719-3.50781-6.61914-5.2832   c-2.73633-2.77344-5.75781-5.25781-4.92578-7.38867c0.83203-2.13281,4.71094-2.45703,8.60352-2.64453   c2.49219-0.11914,5.24219,0.61523,8.4375,1.29688c2.65039,0.56445,5.25586,1.55859,8.11719,2.67578s5.59375,1.90625,7.92578,3.2832   c2.81445,1.66406,5.07813,3.33984,6.83203,5.11523C594.41992,583.9082,594.97852,585.81055,594.14648,587.94336z"/>
</g>
<g>
	<path d="M424.31738,548.45605c0.86475-0.93555,1.23389-2.41309,1.23389-4.15137l0,0   c0.00195-2.59668-0.81494-5.69727-1.64063-8.12988l0,0c-0.8252-2.43359-1.646-4.19043-1.64844-4.19531l0,0l0.00244,0.00293   l0.9043-0.42578c0.00635,0.0332,3.36768,7.17188,3.38232,12.74805l0,0c-0.00195,1.86523-0.37939,3.60156-1.49854,4.8291l0,0   L424.31738,548.45605L424.31738,548.45605z"/>
</g>
<g>
	<path d="M440.91357,552.40332c0.25049-1.30762,0.35889-2.5752,0.35889-3.79492l0,0   c0.00195-3.94434-1.13867-7.39063-2.28125-9.85059l0,0c-1.12402-2.41895-2.23193-3.85254-2.26953-3.90234l0,0l0.7876-0.61426   c0.02686,0.04395,4.75537,6.09082,4.76367,14.36719l0,0c0,1.27832-0.11426,2.6123-0.37695,3.98438l0,0L440.91357,552.40332   L440.91357,552.40332z M436.7207,534.85449c0.00049,0,0.00049,0,0.00098,0.00098l0,0l-0.00098,0.00098V534.85449   L436.7207,534.85449z"/>
</g>
<g>
	<polygon points="452.48779,541.61035 453.47168,541.43066 455.2085,551.01172 454.22461,551.19141 452.48779,541.61035  "/>
</g>
<g>
	<path d="M553.83594,577.66504c0.61035-0.13379,1.7168-2.63477,2.31543-5l0,0c0.6543-2.37598,1.05859-4.65137,1.05859-4.65625l0,0   l0.98438,0.17578c-0.00195,0.00879-0.40918,2.31543-1.0791,4.74609l0,0c-0.72754,2.44043-1.46191,4.9541-2.90039,5.66113l0,0   L553.83594,577.66504L553.83594,577.66504z"/>
</g>
<g>
	<path d="M567.53223,587.92773c0.98828-2.17969,1.35938-4.42871,1.35938-6.58301l0,0c0-3.14258-0.79395-6.07813-1.59375-8.22266l0,0   c-0.79785-2.14258-1.58496-3.47168-1.58691-3.47363l0,0h0.00195l0.8584-0.50879c0.01855,0.03906,3.3125,5.58398,3.31934,12.20508   l0,0c0.00195,2.26758-0.3916,4.66504-1.44727,6.99609l0,0L567.53223,587.92773L567.53223,587.92773z"/>
</g>
<g>
	<path d="M582.18359,575.35352"/>
</g>
<g>
	<polygon points="581.69238,575.44727 582.67285,575.25684 585.52344,590.00781 584.54102,590.19824 581.69238,575.44727  "/>
</g>
<g>
	<path fill="#5F8291" d="M481.72559,295.14404c-0.68555,0.20703-36.00684,70.29199-29.34082,114.2915   c-0.20508-1.34375-5.31445-4.20898-6.64844-6.875c-13.5332-27.06592-5.68555-44.12549,13.64844-78.12549   c4.78516-8.41797,11.65234-17.64746,18.33203-24.66699C479.85547,297.52197,480.21973,297.78467,481.72559,295.14404z"/>
</g>
<g>
	<path fill="#5F8291" d="M332.88477,264.8501c0,0-21.73047,72.21484-8.23047,108.21289c0,0,32.89648-60.21094,65.22949-57.21094   c0,0-10,0.66602-44.33301,73c-2.91602,6.1416-17.66699,40.8335-21.33398,42.99951   c-2.83984,1.67773-8.66602,17.99805-22.33252-7.33398c0,0-10.6665-44.00146-6.6665-56.66748   C295.21777,367.8501,307.55078,305.51709,332.88477,264.8501z"/>
</g>
<g>
	<path fill="#5F8291" d="M390.88379,314.10205c0,0-33,97.3335-17,117.3335c0,0,65.33301-130.16748,105.00098-135.50049   c0,0-8.32568,8.87598-29,39.5c0,0-35.00098,46-43.00098,62.00049c0,0-5.5,5.5-11.5,46.5c0,0-4.5,51.5-9,53c0,0-3,11.75-15.5,8   c0,0-16.83301-19.66602-23.66699-38.83398c-6.83301-19.16602-6.33301-54.16602,1.66699-73.1665c0,0,12.5-38.5,18-43.5   C366.88379,349.43506,388.38379,313.76904,390.88379,314.10205z"/>
</g>
<g>
	<path fill="#5F8291" d="M230.5459,458.38086l-5.3335-22c0,0-25.33398,76.66797-29.33398,213.33398   c0,0-8.66602-93.33398,1.33398-137.33398s28.66699-118.00049,28.66699-118.00049l18-0.66602l-0.66699,45.33447L230.5459,458.38086z   "/>
</g>
<g>
	<path fill="#91B4C3" d="M226.21143,404.71484c0,0-49.3335,106-32,257.33203c0,0,1.3335,10,5.3335-8.66602   c0,0,10.6665-216.66797,36-222L226.21143,404.71484z"/>
</g>
<g>
	<path fill="#5F8291" d="M287.54541,156.04834c0,0-73.33301,8.66602-92.6665,88   c-4.54492,18.65039-8.89258,37.34766-13.41406,56.00586c-4.89746,20.21582-7.4502,39.13281-15.18408,58.61328   c-5.95605,15.00293-12.63867,29.71289-19.79639,44.17822c-19.07813,38.55859-41.78662,75.69141-70.39746,107.9707   c-17.80469,20.08789-37.18359,38.46875-59.20801,53.89844c0,0,14.66602,41.33398,139.33301-68"/>
</g>
<g>
	<path fill="#5F8291" d="M178.87842,481.38086c0,0-60.66699,71.33398-106,81.33398c0,0-7.99951,6.66602,2.66699,6.66602   s69.99951-2,105.33301-67.33203C216.21191,436.71484,178.87842,481.38086,178.87842,481.38086z"/>
</g>
<g>
	<path fill="#5F8291" d="M226.87842,420.04688c-7.37598,0.25586-10.91162,21.29492-12.11768,25.86133   c-10.12012,38.32422-15.2124,78.17578-20.6167,117.37695c-2.73242,19.81641-5.23584,39.66406-7.63867,59.52344   c-0.9541,7.88477-1.49219,15.9043-1.75586,23.64453c-0.21973,6.44531-2.00342,11.66602-9.92773,8.18359   c-9.28906-4.08203-9.94434-19.70508-11.77539-28.17188c-12.10742-55.98242-7.81543-111.85352-2.83496-168.41797   c9.33301-105.99951,54.66699-169.99951,54.66699-169.99951l54.6665-52l8.66699-3.33301l-3.3335,180.00049L226.87842,420.04688z"/>
</g>
<g>
	<path fill="#91B4C3" d="M284.78613,178.04834c0,0,28,13.33301,22.66699,96c0,0-14,62.66602-12.66699,84.66602   c0,0-26.66699,182.6665,26.66699,283.33252c0,0,36.66602,59.33398,47.33301,65.33398c0,0,3.33301,6.66602-8.66699,3.33398   c-7.12695-6.11133-13.90918-12.71289-20.3457-19.54102c-12.49414-13.25586-20.8916-29.69727-30.32031-45.12695   c0,0,22.66602,60.00195,31.33301,69.33398c0,0,12.66602,18.66602-6.66699,11.33398c0,0-38-8.66797-72.6665-80   c0,0-69.33301-192.66797-14.6665-339.33447l10-129.33203H284.78613z"/>
</g>
<g>
	<path fill="#5F8291" d="M295.54541,324.71436l-16.66699,1.33301c0,0-13.3335,39.33301-14,107.99951   c-0.6665,68.66797,6.83887,220.55469,69.50537,283.88867c0,0,5.82813,12.11328-4.17188,6.7793   c-10-5.33203-96.00049-26.66797-104-272.66797c0,0-11.99463-97.11182,26.67188-164.11182l-12.00537-102.55469l48.66699-10.66602   c0,0,17.3335,12.66602,17.99951,66.66602C307.54492,241.38037,307.54492,300.04639,295.54541,324.71436z"/>
</g>
<g>
	<path fill="#DEE9ED" d="M264.87842,434.04688c0,0,3,38.33398,10,46.33398c0,0,10.5-19.75,12.5-32.75c0,0-9.5,47.75-9.5,70.75   l-11.75-33.5C266.12842,484.88086,264.87842,438.71484,264.87842,434.04688z"/>
</g>
<g>
	<path fill="#B3B3B3" d="M179.93652,295.34619c-2.27295,1.59277-18.83887-5.43848-21.72656-6.34766   c-5.59814-1.76074-13.89746-0.74414-18.22119-5.45605c-3.94141-4.29688-2.80176-11.53516-1.44385-16.57813   c5.25-19.5,16.75-48,16.75-58.75c0,0,2-2.75-5.25-0.75s-19.25,3.5-22,0.5s-4.75-3.25-4-15.75   c0.93408-15.57227,1.92773-32.57813,14.58057-43.66895c12.12158-10.62402,25.13965-6.28223,35.16943,5.41895   c0,0,4,4.75,5.75-3.50195c2.49561-11.76563,2.95313-23.99414,6.50586-35.55078c5.8916-19.16602,27.5415-39.87109,48.81689-38.01367   c4.55811,0.39844,19.06836,2.70117,20.92285,7.68164c1.27979,3.4375-5.54834,8.82422-7.6167,11.79395   c-10.104,14.51074-0.8667,22.39746,13.87109,25.09082c26,4.75,26.75,5,31.25,4c4.49854-1,6.74854-6.99609,7.99854-9.24805   c3.02637-5.45117-1.9873-11.89063,1.64893-17.37305c7.46387-11.25391,26.18848,1.24121,35.37793,3.52539   c13.5918,3.37891,25.67285,8.73633,36.10449,18.32031c8.51953,7.82617,3.32324,18.05273,0.13965,26.87012   c-3.89453,10.7832-9.83594,21.09473-16.90234,30.1123c-4.72168,6.02441-10.44434,11.50977-16.61719,16.04297c0,0-4.5,6.5-14.75-1   s-20.24951-9.25-29.74902-1.00098c-8.52246,7.40039-15.52686,16.26074-17.39209,27.6709   c-1.28369,7.85156-1.20068,16.5625,6.80225,20.51953c5.81152,2.875,18.854,0.93945,22.33887,7.56055c2.5,4.75,6,4.5,6.25,21.75   s-16,36.75-18,39.75s-6.5,9.5-18.75,6.25s-20.25-6.25-30.50146-8.50098c-4.76514-1.0459-9.47607-4.5127-14.43994-4.56152   c-6.12891-0.06055-8.08691,8.95996-3.05859,12.3125c3,2,9.25,8,9,12s3,9.5-7.75,17.5c0,0-6.5,3.5-18.5,0.5s-41-9-43.50098-21.25488   C166.85107,312.4585,170.68018,301.83252,179.93652,295.34619z"/>
</g>
<g>
	<path fill="#E6E6E6" d="M283.37842,126.88037c0,0-29.99951-5.83301-34.6665-8.5c-4.66699-2.66602-7-8.83203-5.6665-11.83203   s2.99951-8.79297,9.33301-15.79297s2.8335-5.375,2.8335-5.375s-5.83105-3.16504-5.8335-3.16602   c-2.75342-1.2959-21.29248,30.92383-7.4585,36.58398c7.33301,3,37.4585,13.41602,47.4585,8.75"/>
</g>
<g>
	<path fill="#E6E6E6" d="M308.37891,95.88037c0,0,65,20.5,67.5,30l-1.16699-2.66602c0,0-7.33301-6.66699-9.5-7.83398   c-2.16699-1.16602-7.49902-4.33203-9.66699-5.33203c-2.16602-1-9.16602-4-9.83301-4s-9.50098-3.00098-12.83301-3.66797   c-3.33398-0.66602-6.83398-3.49902-9.33398-3.83203c-2.5-0.33398-7.16602-2.33398-9.16602-2.5c-2-0.16797-2-0.16797-2-0.16797   S309.21094,95.38037,308.37891,95.88037z"/>
</g>
<g>
	<path fill="#E6E6E6" d="M375.87891,125.88037c1.52148,2.39063-4.40625,14.44922-5.25,16.57813   c-4.6709,11.76953-10.64648,23.67969-19.22656,33.10156c-3.5791,3.92969-7.02539,8.31836-11.53516,11.23242   c-5.83203,3.76855-8.40918,2.26758-13.83789-1.02441c-12.02734-7.29395-26.68945-5.76855-36.15137,5.11426   c-6.57178,7.55664-12.82471,15.39258-14.66016,25.4082c-1.90967,10.4209-3.63672,25.63477,9.65967,28.58984   c6.42334,1.42773,15.66016,0.48633,19.729,6.66602c5.27832,8.01855,2.47363,23.46484-0.25,31.83984   c-2.14355,6.58984-6.18408,11.82227-10.27051,17.29688c-6.65918,8.91992-7.62354,14.12695-19.32178,10.00586   c-7.04541-2.48047-13.76172-6.24609-20.87549-8.42188c-5.81689-1.77832-17.83008-7.35352-24.00586-4.88867   c-6.20996,2.47949-9.63721,7.77344-7.13574,14.30469c1.91064,4.98828,8.83545,7.16211,10.13135,11.69727   c1,3.5,8.6665,14.66699-14.3335,20.5c0,0,9.66699,2.33398,15.66699-4.66602s4.16602-7.66699,4.33301-10.66699   s-1.3335-6.33301-2.5-7.16699c-1.1665-0.83301-3.5-3.99902-5-4.16602s-4-5.5-4.1665-7.83398   c-0.1665-2.33301-0.00049-6.99902,6.6665-8.66602c0,0,5.66699,1,11.8335,4c0,0,30.66699,8.33398,35.3335,9.5   c0,0,11.17188,3.4707,16.67188-6.0293c0,0,14.49414-19.80469,15.66113-39.30469c0,0,2-15-5.66602-20.83301   c0,0-2.8335-4.33301-13.66699-5s-14.66699-5.83301-14.3335-8.16699c0.3335-2.33203-2.3335-20.16602,1-25.16602   s12.8335-19.83398,21.3335-23.16699s14-3,27.5,6.33301c0,0,6.49902,5.83398,13.83301-2.33301c0,0,25.66602-20,34.5-57.5   C377.54492,133.04736,378.21191,129.54736,375.87891,125.88037z"/>
	<path d="M218.45605,344.24414l-0.00439-0.72803c13.26807-3.39258,16.06104-8.39941,16.07324-12.61523l0,0   c0.00195-3.104-1.55322-5.86035-2.0083-7.41748l0,0c-1.13672-4.26465-8.06396-6.47021-10.12109-11.66602l0,0   c-0.5752-1.50586-0.84766-2.95313-0.84766-4.32568l0,0c-0.00195-4.7627,3.28662-8.51074,8.1958-10.4624l0,0   c1.14648-0.45947,2.46191-0.64648,3.87842-0.64648l0,0c6.61084,0.0083,15.61768,4.07764,20.37646,5.52539l0,0   c7.16553,2.19287,13.88574,5.96191,20.89063,8.42773l0,0c2.7583,0.97168,4.89648,1.41064,6.62256,1.41064l0,0   c5.44385,0.02832,7.15527-4.40918,12.27344-11.28809l0,0c4.09033-5.47803,8.09668-10.67773,10.21484-17.18896l0,0   c1.58936-4.88867,3.20947-12.22656,3.20947-19.03027l0,0c0.00195-4.77686-0.80273-9.28174-2.91699-12.4873l0,0   c-3.85986-5.94385-12.9585-5.08594-19.49609-6.50684l0,0c-8.91553-1.96973-11.28174-9.41553-11.25732-17.10156l0,0   c0-4.09375,0.64648-8.29932,1.30908-11.92188l0,0c1.86035-10.13525,8.17188-18.02246,14.74561-25.58643l0,0   c5.66309-6.51855,13.19238-9.73242,20.91309-9.73047l0,0c5.32959,0,10.74902,1.52881,15.71729,4.54297l0,0   c3.18311,1.93311,5.3335,3.19385,7.63672,3.1875l0,0c1.63232,0,3.41699-0.61816,5.80176-2.15869l0,0   c4.43945-2.86621,7.87256-7.22461,11.4624-11.16992l0,0c8.53125-9.36914,14.49365-21.23828,19.15479-32.9873l0,0   c0.76416-1.89893,5.49414-11.65576,5.47217-15.28857l0,0c0.00195-0.43408-0.07129-0.75488-0.17676-0.9292l0,0   c-0.00391-0.00635-0.0083-0.01318-0.0127-0.02002l0,0l0.63232-0.40234c1.53271,2.40869,1.81348,4.74854,1.81348,6.13867l0,0   c-0.00244,0.79492-0.0918,1.28076-0.09961,1.31543l0,0c-8.86572,37.61816-34.58252,57.6665-34.58545,57.66504l0,0l0,0l0,0   c-3.07129,3.42285-6.06738,4.47998-8.51904,4.47607l0,0c-3.50049-0.0083-5.80957-2.08984-5.80566-2.08594l0,0   c-8.62305-5.96191-13.91602-8.1958-18.75586-8.19189l0,0c-2.72998-0.00195-5.35254,0.70557-8.39355,1.89844l0,0   c-8.2915,3.21826-17.84717,18.02637-21.15869,23.02734l0,0c-1.22998,1.80908-1.64648,5.76074-1.63623,9.96045l0,0   c0,5.80957,0.72559,12.10498,0.72754,14.40186l0,0c0,0.26025-0.0083,0.47168-0.03271,0.6543l0,0   c-0.01221,0.06543-0.01611,0.14258-0.01611,0.22998l0,0c-0.05078,2.0874,3.69141,6.88867,14.00146,7.50293l0,0   c10.29834,0.62842,13.53467,4.58008,13.91797,5.11133l0,0c5.16992,4.00586,5.99072,11.8667,6.00098,16.78125l0,0   c0,2.57568-0.23584,4.35205-0.23389,4.33789l0,0c-1.18896,19.66064-15.72119,39.47607-15.71094,39.46973l0,0   c-3.2583,5.63477-8.50879,6.84424-12.29004,6.83398l0,0c-2.77246,0-4.79492-0.62793-4.79736-0.62793l0,0   c-4.6792-1.16895-35.33887-9.50098-35.34131-9.50293l0,0l-0.03223-0.0083l-0.03271-0.01611   c-5.68994-2.76855-10.93848-3.81836-11.65234-3.95313l0,0c-5.64014,1.46484-6.31104,4.96338-6.3457,7.35791l0,0   c0,0.32324,0.01465,0.62598,0.03467,0.89844l0,0c0.07129,1.06689,0.72559,2.97803,1.54492,4.58594l0,0   c0.77637,1.62207,1.89258,2.93506,2.28906,2.90039l0,0c1.83545,0.27686,4.06738,3.49268,5.17725,4.23438l0,0   c1.27881,0.95557,2.64258,4.00439,2.66895,7.00488l0,0c0,0.1626-0.00391,0.3252-0.01221,0.4917l0,0   c-0.01025,0.13232-0.01416,0.26025-0.01416,0.38428l0,0c0,0.82959,0.15039,1.51025,0.15234,2.32568l0,0   c0,1.69922-0.70947,3.68506-4.56152,8.17578l0,0c-3.70166,4.31543-8.74854,5.1709-12.16357,5.1709l0,0   C220.04932,344.62793,218.47607,344.25,218.45605,344.24414L218.45605,344.24414z M222.33252,343.87793   c3.30322-0.00195,8.09619-0.8252,11.59473-4.90918l0,0c3.82959-4.47363,4.38037-6.25879,4.38037-7.6875l0,0   c0.00195-0.70947-0.15039-1.40479-0.15039-2.32568l0,0c0-0.13818,0.00391-0.28467,0.01221-0.42871l0,0   c0.0083-0.14844,0.01221-0.29688,0.01221-0.44727l0,0c0.02637-2.74219-1.4248-5.771-2.35596-6.39502l0,0   c-1.22363-0.92285-3.65674-4.04102-4.82178-4.09814l0,0c-1.10352-0.19922-1.98975-1.63818-2.87646-3.30713l0,0   c-0.84961-1.68506-1.52832-3.60596-1.62402-4.87256l0,0c-0.02002-0.28467-0.03662-0.60352-0.03662-0.95117l0,0   c-0.03223-2.55127,0.94336-6.625,6.98682-8.10693l0,0l0.07715-0.01807l0.0791,0.01416   c0.02051,0.00391,5.69482,1.00488,11.90088,4.01563l0,0c1.13623,0.30957,30.72363,8.34912,35.31201,9.49609l0,0   c0.00195-0.00391,0.48975,0.14648,1.31299,0.29883l0,0c0.81494,0.15039,1.95947,0.30078,3.28271,0.30078l0,0   c3.64697-0.0083,8.5415-1.11816,11.66211-6.49268l0,0c0.00391-0.01416,3.60596-4.92725,7.3623-12.29004l0,0   c3.75684-7.36035,7.65137-17.1499,8.22852-26.84229l0,0c0-0.00391,0.23193-1.73779,0.23193-4.2666l0,0   c0.01025-4.8584-0.89014-12.54639-5.75244-16.21924l0,0l-0.05127-0.03857l-0.03418-0.05518   c-0.00635,0.00195-0.14453-0.22559-0.55908-0.62207l0,0c-0.4126-0.39404-1.07959-0.93896-2.0835-1.50586l0,0   c-2.0083-1.13672-5.36475-2.37061-10.73486-2.70166l0,0c-10.50146-0.66699-14.6543-5.44971-14.70508-8.25293l0,0   c0-0.11572,0.00586-0.23193,0.02441-0.3418l0,0c0.01611-0.11182,0.02441-0.30078,0.02441-0.54248l0,0   c0.00195-2.19336-0.72754-8.54785-0.72754-14.40186l0,0c0.00977-4.25488,0.35742-8.24316,1.76221-10.37744l0,0   c3.354-5.00049,12.79834-19.85986,21.5083-23.30713l0,0c3.08154-1.20996,5.80371-1.95361,8.66797-1.95361l0,0   c5.09375,0.00391,10.52539,2.34375,19.21924,8.35645l0,0c0.00439-0.00391,0.52246,0.46973,1.46387,0.95557l0,0   c0.94287,0.48389,2.28271,0.96729,3.87842,0.96729l0,0c2.23193-0.00391,4.99023-0.92676,8.00879-4.27246l0,0   c0.00439-0.00439,1.58594-1.23389,4.11865-3.68555l0,0c2.53271-2.44922,6.00684-6.1084,9.75293-10.93604l0,0   c7.49658-9.65576,16.09326-23.98438,20.49219-42.65332l0,0c-0.00391,0,0.08105-0.4209,0.08105-1.15869l0,0   c0-0.95996-0.14404-2.41846-0.80811-4.03027l0,0c-0.5127,4.37256-4.78564,13.03711-5.47266,14.80811l0,0   c-4.67969,11.79004-10.66992,23.74219-19.29932,33.2168l0,0c-3.56738,3.91309-7.02686,8.33252-11.60693,11.29395l0,0   c-2.44727,1.58154-4.37842,2.27686-6.20996,2.27881l0,0c-2.59766-0.00781-4.8501-1.37793-8.02734-3.29688l0,0   c-4.85596-2.9458-10.14111-4.43359-15.32666-4.43359l0,0c-7.51123,0.00195-14.81689,3.11426-20.3457,9.47266l0,0   c-6.56982,7.5498-12.76367,15.33496-14.57471,25.23047l0,0c-0.66064,3.60205-1.29736,7.771-1.29736,11.78564l0,0   c0.02686,7.59668,2.20557,14.47754,10.66992,16.36963l0,0c6.30762,1.4375,15.68262,0.41064,19.95996,6.82617l0,0   c2.23779,3.40674,3.03857,8.04346,3.04053,12.8999l0,0c-0.00195,6.92139-1.63818,14.30615-3.24609,19.26221l0,0   c-2.1709,6.66748-6.24463,11.93408-10.32813,17.40625l0,0c-5.03125,6.71436-6.85645,11.55811-12.87354,11.58887l0,0   c-1.854-0.00195-4.06738-0.46533-6.87256-1.45361l0,0c-7.08643-2.49805-13.79834-6.26074-20.86035-8.41748l0,0   c-4.82764-1.48389-13.81641-5.50049-20.15674-5.49268l0,0c-1.35156,0-2.57324,0.18115-3.6001,0.59375l0,0   c-4.72607,1.89453-7.72217,5.37891-7.72412,9.76514l0,0c0,1.27295,0.25195,2.62842,0.79883,4.05762l0,0   c1.76416,4.77881,8.68799,6.92139,10.14111,11.72705l0,0c0.38623,1.38818,2.0332,4.29297,2.03711,7.62451l0,0   c0.01172,4.44092-2.97852,9.49951-14.90332,12.87939l0,0C220.92432,343.83594,221.58789,343.87793,222.33252,343.87793   L222.33252,343.87793z M375.87793,125.88037l-0.31543,0.20117L375.87793,125.88037L375.87793,125.88037z M375.87793,125.88037   l-0.31543,0.20117L375.87793,125.88037L375.87793,125.88037z"/>
</g>
<g>
	<path fill="#FFFFFF" d="M158.21191,145.38037c0,0,7.33301,4.66797,13.33301,14.66797c0,0,3.33398,2.66602,6.66699,0   c3.33301-2.66797,1.6665-4.16797,1.6665-4.16797s0.25,2.75-6-0.5C167.62842,152.13135,163.54541,145.38037,158.21191,145.38037z"/>
</g>
<g>
	<g>
		<g>
			<path d="M217.6958,226.06299l-1.11914,10.9375l-20.77832-4.37891l2.40723-11.4209l1.03223,0.21777     c0.08105,1.88574,0.35742,3.15918,0.8291,3.82129s1.45215,1.15039,2.94336,1.46484l11.11133,2.34082l0.27539-1.98926     c-1.91113-1.0498-3.4502-2.01465-4.61719-2.89551c-1.16797-0.88086-2.22363-1.92383-3.16797-3.12793     c-0.94336-1.20508-1.73145-2.58105-2.36328-4.12695c-1.08496-2.69629-1.60938-5.35156-1.57324-7.9668     s0.50293-5.05566,1.39941-7.32129c0.89648-2.2666,2.03809-4.1875,3.42383-5.76367     c1.65234-1.92773,3.21191-3.27539,4.67871-4.04395c1.46777-0.76855,3.13965-1.45898,5.0166-2.06934     c1.78125-0.60645,3.88281-0.94824,6.30566-1.02441c2.42383-0.07617,4.82813,0.1377,7.21289,0.63965     c2.4082,0.50781,4.70508,1.28516,6.8916,2.33301c2.18652,1.04688,3.97168,2.20801,5.35645,3.48145     c1.4707,1.31641,2.71973,2.60938,3.74512,3.87891c1.02637,1.27051,1.91211,3.14551,2.65918,5.62695     c0.63184,2.00098,0.90137,4.21973,0.80664,6.65527c-0.09375,2.43457-0.65137,4.85645-1.67383,7.26367     s-2.57324,4.625-4.6543,6.6543c-1.7959,1.70508-3.7002,2.92676-5.71191,3.66406     c-2.01172,0.73828-4.56836,1.24707-7.66895,1.52734l-0.55078,1.93262l11.11133,2.34082     c1.49023,0.31445,2.59863,0.25488,3.3252-0.17969c0.72559-0.43359,1.47949-1.47852,2.25879-3.13379l1.03223,0.2168     l-2.40625,11.4209l-20.77832-4.37793l3.38965-10.45996c0.62695-0.13086,1.32227-0.27832,2.08691-0.44043     s1.55566-0.41992,2.37305-0.77539c0.81738-0.35449,1.70898-0.95117,2.67676-1.78906     c0.9668-0.83789,1.92871-1.93457,2.88477-3.29004c1.26367-1.79395,2.3291-4.15039,3.19629-7.06934     c0.86621-2.91895,1.23926-5.96582,1.11816-9.1416c-0.12207-3.1748-0.9541-5.93164-2.49707-8.26855     c-1.91895-2.94336-5.06836-4.87695-9.44922-5.7998c-4.37988-0.92285-8.03027-0.42285-10.95117,1.50098     c-2.35547,1.51563-4.22852,3.70117-5.62109,6.55762s-2.28125,5.79492-2.66602,8.81543     c-0.38477,3.02148-0.36133,5.60645,0.07129,7.75781c0.32813,1.62598,0.76172,3.01074,1.29883,4.1543     c0.53711,1.14258,1.11719,2.05566,1.74023,2.73828c0.62305,0.68164,1.23535,1.24219,1.83789,1.67969     C216.54541,225.26904,217.13037,225.68018,217.6958,226.06299z"/>
		</g>
	</g>
	<g>
		<g>
			<path d="M198.56982,185.24561l-0.5166-0.1084c-1.28418-0.27148-2.33789-1.03809-3.16113-2.30176     c-0.82422-1.2627-1.08594-2.60547-0.78613-4.02734c0.30957-1.46777,1.08984-2.58496,2.34082-3.35156     c1.25098-0.76563,2.64551-0.9873,4.18164-0.66309c1.05469,0.22168,1.97754,0.7334,2.7666,1.53516     c0.78906,0.80078,1.31348,1.83301,1.57422,3.09766s0.21484,2.73438-0.13867,4.4082     c-0.47754,2.27051-1.4082,4.2959-2.78906,6.07715c-1.38086,1.78027-2.8877,3.10352-4.51953,3.96973     c-1.63086,0.86523-3.00879,1.17969-4.13281,0.94336c-0.71094-0.14941-1.24316-0.49512-1.5957-1.03711     c-0.35254-0.54102-0.46191-1.13281-0.32617-1.77539c0.2168-1.03223,0.84668-1.68945,1.88867-1.97266     c1.36523-0.45508,2.48145-1.03418,3.34766-1.73828C197.5708,187.59814,198.19287,186.57959,198.56982,185.24561z"/>
		</g>
	</g>
</g>
<g>
	<path fill="#DEE9ED" d="M345.38379,245.43506c0,0-3.39844,41.04883-1.89844,54.54883c0,0,51.56543-11.88184,60.56543-2.88184   l0.0083,7.54199c0,0-45.57373,1.33887-63.57275,14.83887c0,0-9.10254-41.29883-6.10254-57.79785L345.38379,245.43506z"/>
</g>
<g>
	<path fill="#DEE9ED" d="M404.05908,304.14404c0,0-12.57666,21.33789-3.57666,48.33691c0,0,54.06836-49.54492,67.56836-48.04492   s-55.56836,42.0459-70.56836,72.04395c-14.99902,29.99854-5.53125-74.0918-7.43164-72.71094   S404.05908,304.14404,404.05908,304.14404z"/>
</g>
<g>
	<path fill="#DEE9ED" d="M471.38477,307.76904c0,0-6.23828,17.21289-4.73828,44.21191c0,0,33.90625-47.71094,59.4043-40.21191   c0,0-42.9043,38.71289-59.4043,53.71191c0,0-3.02539-16.42773-1.92969-48.37891"/>
</g>
<g>
	<path fill="#DEE9ED" d="M514.38281,337.43506c0,0,2,46,4,50.5c0,0,3.59375-17.45508,38.0918-41.4541   c0,0-16.49805,23.99805-41.99805,61.49561l-7.75781-53.04248L514.38281,337.43506z"/>
</g>
<g>
	<path d="M479.16895,346.57568c-18.02783-0.01221-35.29053,8.8457-42.74561,13.28076l0,0   c-2.48682,1.47461-3.8667,2.44092-3.86865,2.44482l0,0l-1.14795-1.63818c0.08057-0.03711,22.86865-16.05859,47.76221-16.08789l0,0   c15.55859-0.03076,32.00391,6.42334,43.6748,26.90869l0,0h0.00195l-1.73926,0.99316   C509.70215,352.5791,494.19531,346.60693,479.16895,346.57568L479.16895,346.57568z"/>
</g>
<g>
	<path d="M353.38379,374.93506"/>
</g>
<g>
	<path fill="#DEE9ED" d="M599.97266,388.48096c0,0,13.5,7.49805,13.5,20.99756c0,0,18.41211-8.04297,22.41211-19.04346   c0,0,1,2-1.5,11.50049c0,0-15,15.5-20.5,17.5s-9-18.5-14.5-20C599.38477,399.43555,599.5625,397.52734,599.97266,388.48096z"/>
</g>
<g>
	<path fill="#DEE9ED" d="M686.38477,378.18506c0,0,13.5,16,17.5,35.00049c0,0,20-31.00049,20.5-36.75049c0,0,4.5,4,3.75,23.50049   c0,0-16.25,22.75-21.75,32.25c0,0-17-33.5-18.25-33.75C688.13477,398.43555,688.63477,394.93506,686.38477,378.18506z"/>
</g>
<g>
	<path fill="#DEE9ED" d="M705.38477,627.43555c0,0-2,8,5,14c0,0,10-5.66797,12-8.66797c0,0-4.66797,14.66797-7,16.66797   c0,0-6,2.66602-9,5.66602l-4.33398-10.66602L705.38477,627.43555z"/>
</g>
<g>
	<path fill="#DEE9ED" d="M744.88477,615.68555c0,0,12.5,32.75,12.5,48.75c0,0,12-26,10-62l10,40c0,0,14.25-22.25,20.25-38.25   c0,0-1.5,10.25-2.25,16.91602c0,0-14.66602,31.33203-18.66602,32.66602c0,0-5.33398-8-6.66797-17.33203   c0,0-5.33398,24.66602-10.66602,37.33203c0,0-13.58398-34.5-16.25-43.83203L744.88477,615.68555z"/>
</g>
<g>
	<path d="M634.71875,478.43555"/>
</g>
<g>
	<path fill="#5F8291" d="M633.63477,484.26758c0,0,80-56.66406,2-163.66553c0,0,38,110.8335-2,155.3335V484.26758z"/>
</g>
<g>
	<path fill="#DEE9ED" d="M651.38477,391.93506c0,0,10,14.00049,15.5,25.50049c0,0,19.5-27.50049,18-39.00049c0,0,3.5,18,2,21.50049   c0,0-9,20.5-16.5,29c0,0-17-22.5-18.5-23C651.88477,405.93555,651.38477,398.93555,651.38477,391.93506z"/>
</g>
<g>
	<path fill="#5F8291" d="M758.38477,468.93555c0,0-8-100.50049-35-102.50049c0,0,7.5,23,5.5,21l10,42.00049l13,32   C751.88477,461.43555,756.88477,466.93555,758.38477,468.93555z"/>
</g>
<g>
	<path fill="#DEE9ED" d="M726.7168,377.10205c0,0,23.00195,17.33203,30.33398,30.66553c0,0,7-29.66553,4.66602-82.66553   c0,0,6,9.66699,8.66797,18c0,0-0.66797,58.99951-7,76.3335c0,0-34.66797-28.3335-34.66797-30.00049   C728.7168,389.43506,728.05078,382.10205,726.7168,377.10205z"/>
</g>
<g>
	<path d="M677.88477,462.93555"/>
</g>
<g>
	<path fill="#5F8291" d="M654.88477,547.93555c0,0,84.5-65,32.5-150.5c0,0,6.24609,31.19727-19.87695,118.59766   c0,0,0.37695,4.90234-7.62305,19.90234C659.88477,535.93555,653.88477,546.93555,654.88477,547.93555z"/>
</g>
<g>
	<path d="M247.29346,306.71338"/>
</g>
<g>
	<path fill="#DEE9ED" d="M848.38477,549.43555c0,0-2,18-2,43c0,0-15-8-35-26l-2,10c0,0,28,24,44,34l6-45L848.38477,549.43555z"/>
</g>
<g>
	<path d="M17.91162,569.90137c-2.22021-2.4248-2.50244-4.83984-2.52539-5.0293l0,0l-0.1377-1.30469l1.27295-0.31152   c1.82715-0.4082,5.50635-2.71387,9.7998-6.16699l0,0c4.32715-3.44922,9.42383-8.0332,14.68555-13.03418l0,0   c10.52734-10.00293,21.72607-21.67773,28.99268-29.4082l0,0c4.8457-5.15527,7.93311-8.54785,7.9165-8.52734l0,0   c63.65869-73.5332,88.68945-152.24121,93.92188-170.68506l0,0c0.74854-2.63428,1.08691-4.01807,1.08936-4.02441l0,0v0.00244   l2.91211,0.71484c-0.03809,0.12744-22.41016,91.32568-95.68018,175.98438l0,0   c-0.02295,0.01953-27.94971,30.70313-47.31348,47.44727l0,0c-5.71289,4.89648-10.50977,8.60449-14.14209,10.11035l0,0   c0.25146,0.61426,0.68262,1.40332,1.41748,2.2041l0,0c1.61621,1.73926,4.72217,3.6709,11.21533,3.68848l0,0   c1.95264,0,4.20801-0.18457,6.8042-0.60645l0,0c9.65381-1.54492,33.00635-12.51758,56.94824-27.50195l0,0   c23.99023-14.97266,48.82275-34.03125,62.09912-51.58887l0,0l2.3916,1.81055   c-13.72363,18.10547-38.72803,37.21387-62.90186,52.32422l0,0c-24.22607,15.09961-47.37402,26.12598-58.0542,27.91602l0,0   c-2.73389,0.44531-5.14844,0.64551-7.28711,0.64551l0,0c-0.02637,0-0.05225,0-0.07861,0l0,0   C24.22363,574.56055,20.12354,572.3252,17.91162,569.90137L17.91162,569.90137z"/>
</g>
<g>
	<path d="M179.0332,656.55957c-3.09473-0.04688-5.95508-1.90918-8.22021-3.62695l0,0   c-2.24854-1.7373-3.82715-3.44141-3.86328-3.47754l0,0l-0.22168-0.24023l-0.10352-0.3125   c-10.20898-31.10449-12.03076-80.21777-12.04102-112.28809l0,0c0-18.69824,0.6333-31.56836,0.63525-31.58789l0,0v-0.0332   l0.00439-0.03027c7.37793-80.3457,45.01758-163.81641,45.04297-163.89453l0,0L203,342.30127   c-0.00439,0.01465-2.33252,5.17822-5.96143,14.22656l0,0c-3.62891,9.04541-8.5459,21.94629-13.69043,37.33984l0,0   c-10.29053,30.77783-21.48438,71.52881-25.13525,111.3374l0,0c-0.03076,0.70508-0.62988,13.28711-0.62988,31.40918l0,0   c-0.0127,31.80371,1.87451,80.62891,11.78467,111.02637l0,0c0.16406,0.16797,0.41797,0.42383,0.75293,0.74219l0,0   c0.625,0.5957,1.50928,1.3916,2.52686,2.17676l0,0c2.01611,1.5957,4.65039,3.0459,6.38574,2.99805l0,0   c1.11035-0.04688,1.85156-0.32715,2.71729-1.7627l0,0c0.8335-1.45508,1.49219-4.21387,1.48389-8.64063l0,0   c0-0.43262-0.00635-0.88477-0.01709-1.34961l0,0l-0.00391-0.10059l0.0127-0.10156c0-0.00684,4.4668-40.33984,10.83154-86.56348l0,0   c6.37549-46.24609,14.61035-98.2832,22.27344-122.04541l0,0c2.28027-6.82275,4.15869-11.2876,6.91797-13.16455l0,0l1.58984,2.54395   c-0.88037,0.46436-2.54834,3.0127-4.06592,7.03613l0,0c-1.56445,4.02783-3.19824,9.5332-4.84473,16.13281l0,0   c-3.29785,13.2041-6.6626,30.7959-9.87988,50.02246l0,0c-6.43848,38.45508-12.29492,83.4668-15.94873,113.3125l0,0   c-2.31689,18.92676-3.74414,31.72168-3.88184,32.95801l0,0c0.01074,0.45313,0.01611,0.8916,0.01611,1.31934l0,0   c-0.0083,4.70508-0.63721,7.89746-1.87207,10.11328l0,0c-1.17627,2.1875-3.22412,3.29297-5.20117,3.29297l0,0   C179.11816,656.56055,179.07568,656.56055,179.0332,656.55957L179.0332,656.55957z"/>
</g>
<g>
	<path d="M76.41406,570.89063c-0.46191,0-0.75684-0.00586-0.87305-0.00977l0,0c-0.2168,0.00195-0.42578,0.00391-0.63135,0.00391l0,0   c-2.08545-0.00684-3.55469-0.23633-4.70801-0.80273l0,0c-1.16357-0.52051-1.97217-1.76172-1.92041-2.89551l0,0   c0.06689-1.76172,1.09082-2.95508,1.9248-3.95996l0,0c0.86475-0.97559,1.68604-1.64258,1.72363-1.67383l0,0l0.36182-0.29883   l0.46973-0.03516c10.97461-0.81152,25.58838-8.99121,39.3125-18.99609l0,0c13.74512-9.99414,26.6958-21.74609,34.84326-29.54004   l0,0c5.43066-5.19629,8.70898-8.61328,8.71729-8.62109l0,0v0.00195l2.16455,2.0752   c-0.0249,0.02734-13.30371,13.86426-30.48389,28.03125l0,0c-17.04932,14.00098-37.71777,28.41113-53.81787,29.99316l0,0   c-0.02686,0.02441-0.05566,0.05078-0.08594,0.0791l0,0c-0.26318,0.24219-0.61621,0.58691-0.95703,0.97363l0,0   c-0.71436,0.74609-1.24121,1.78809-1.17188,1.9707l0,0c-0.0127,0.03516,0,0.02051,0,0.02637l0,0   c0.00195,0.00293,0.04785,0.0752,0.26709,0.18848l0,0c0.42871,0.22754,1.52539,0.49316,3.36035,0.48438l0,0   c0.19434,0,0.39697-0.00195,0.60791-0.00586l0,0h0.03955l0.0459,0.00195c0.00244-0.00195,0.26123,0.00879,0.81104,0.00879l0,0   c5.86328-0.00195,42.42383-1.38379,78.61621-34.56152l0,0l2.02686,2.21094c-36.88916,33.81152-74.23828,35.35059-80.61719,35.35059   l0,0C76.43164,570.89063,76.42236,570.89063,76.41406,570.89063L76.41406,570.89063z"/>
</g>
<g>
	<path d="M192.86182,662.70313c-0.23877-0.55176-0.26025-0.87305-0.37842-1.51563l0,0   c-0.09717-0.60645-0.19629-1.3877-0.3042-2.33398l0,0c-0.21582-1.8916-0.45459-4.43555-0.70996-7.41895l0,0   c-0.50928-5.96484-1.07764-13.67969-1.61035-21.32031l0,0c-1.0625-15.27832-1.98193-30.25098-1.98193-30.25293l0,0l2.99658-0.18457   c0,0.02344,0.68018,11.10449,1.54883,23.93652l0,0c0.86621,12.82715,1.92236,27.40723,2.6665,34.27246l0,0   c0.13428,1.27637,0.27588,2.33008,0.37939,2.96289l0,0c0.2168-0.27832,0.47119-0.67773,0.72363-1.18457l0,0   c0.71387-1.41113,1.43262-3.63574,1.86963-6.51172l0,0c0.23047-1.46484,0.98877-11.91504,2.13232-27.14746l0,0   c1.14941-15.27246,2.70654-35.4873,4.5957-56.92383l0,0c3.78223-42.89063,8.85547-90.5791,14.68701-113.60645l0,0   c1.71777-6.61523,3.30078-11.1416,5.50439-13.43359l0,0l2.12158,2.12109c-0.94482,0.89355-2.28223,3.63672-3.48877,7.62988l0,0   c-1.23389,4.00391-2.45508,9.29297-3.64258,15.54102l0,0c-2.37744,12.49805-4.61914,28.83203-6.66846,46.61816l0,0   c-4.10156,35.5791-7.43359,76.98633-9.59961,105.44434l0,0c-1.45166,19.0127-2.35986,32.09766-2.67676,34.21094l0,0   c-0.75049,4.70313-2.03271,7.90234-3.64697,9.61035l0,0c-0.55811,0.55273-1.23633,1.05566-2.22119,1.07715l0,0   c-0.00928,0-0.01904,0-0.02881,0l0,0C194.04492,664.29395,193.19678,663.47168,192.86182,662.70313L192.86182,662.70313z"/>
</g>
<g>
	<path d="M340.49023,729.91895l-0.06396-0.01074l-0.05518-0.0127c-31.05811-7.20996-54.37793-35.76563-70.89355-65.73828l0,0   c-16.50977-30.00977-26.19482-61.58105-29.55908-75.36719l0,0l-0.01514-0.0625l-0.0083-0.05078   c-0.00439-0.04004-17.53613-107.00488-17.54053-192.33203l0,0c0.00244-18.60938,0.83252-36.19238,2.87695-51.44141l0,0   l2.97266,0.396c-2.0166,15.05762-2.84912,32.52734-2.84912,51.04541l0,0c-0.00195,63.70898,9.84473,139.80078,14.76758,173.83301   l0,0c1.56494,10.82617,2.62891,17.37695,2.7251,17.96973l0,0c3.31836,13.58398,12.95996,44.95605,29.25732,74.56445l0,0   c16.29834,29.6582,39.27979,57.4043,68.83545,64.2373l0,0c0.04541,0.00293,0.20508,0.02734,0.47852,0.02734l0,0   c0.46191,0.00781,1.12012-0.0957,1.47363-0.31934l0,0c0.33008-0.24902,0.54688-0.36035,0.5918-1.33594l0,0   c0.01709-1.11523-0.60693-3.32813-2.72559-6.77148l0,0c-6.35449-10.40234-13.18359-20.54004-18.78613-31.58594l0,0   c-24.24365-47.81055-38.05127-102.45215-44.28223-155.27148l0,0c-2.73828-23.21094-4.36279-46.52637-5.15283-69.87402l0,0   l2.99805-0.10156c0.78564,23.27441,2.40625,46.50684,5.13428,69.62402l0,0c6.19629,52.54688,19.93994,106.87109,43.97705,154.2666   l0,0c5.48975,10.82813,12.26807,20.90234,18.67334,31.37988l0,0c2.24219,3.69043,3.14746,6.25586,3.16455,8.33398l0,0   c0.04443,1.81641-0.91357,3.28418-2.06152,3.91406l0,0c-1.12646,0.65625-2.25293,0.73242-3.00439,0.74121l0,0   C340.89502,729.97656,340.54346,729.92578,340.49023,729.91895L340.49023,729.91895z M272.53711,461.81641l0.00049,0.00195l0,0   h-0.00049V461.81641L272.53711,461.81641z"/>
</g>
<g>
	<path d="M359.79834,712.19824c-2.03613-0.16504-3.89648-1.46484-6.19385-3.3623l0,0   c-2.35693-2.00195-5.03906-4.78809-7.94678-8.11621l0,0c-5.80859-6.65234-12.49268-15.46191-18.84131-24.26758l0,0   c-12.69482-17.61035-24.0332-35.19336-24.04004-35.2041l0,0l2.521-1.62598c0.00439,0.00781,2.16162,3.35156,5.65527,8.59863l0,0   c3.49658,5.24609,8.3208,12.38281,13.63867,19.93652l0,0c10.60791,15.08594,23.30029,31.91797,30.95605,38.39258l0,0   c2.13086,1.86719,3.96533,2.73535,4.50586,2.66504l0,0v-0.00195c0.03174,0,0.10156-0.00293,0.19727,0.00781l0,0l0.23584,0.01953   l0.2168,0.0918c0.00244-0.00293,0.77393,0.3291,1.94727,0.66895l0,0c1.1709,0.3418,2.71191,0.66992,4.05908,0.66699l0,0   c0.87988,0.00195,1.65234-0.14258,2.20313-0.41113l0,0c-0.12305-0.14063-0.25928-0.29199-0.40918-0.45313l0,0   c-1.21338-1.30566-3.33057-3.30273-6.77783-6.23145l0,0c-0.2124-0.16211-75.31641-64.80273-75.30811-215.53125l0,0   c0-2.67188,0.02344-5.37109,0.07227-8.09375l0,0c2.71631-154.80664,11.43701-152.06494,11.39404-172.84424l0,0h3.00146   c-0.04688,21.88477-8.65674,17.95898-11.39648,172.89795l0,0c-0.04883,2.70508-0.07227,5.38574-0.07031,8.04004l0,0   c0.00684,130.97363,57.01953,196.12793,71.13184,210.2832l0,0c2.01709,2.01953,3.12646,2.96973,3.12451,2.9668l0,0   c5.24512,4.47168,7.50879,6.78906,8.51172,8.29395l0,0c0.32324,0.52441,0.58691,0.95215,0.6123,1.69141l0,0   c0.04248,0.5293-0.34229,1.28125-0.84375,1.54883l0,0c-0.48242,0.28906-0.85449,0.29785-1.13721,0.30664l0,0   c-0.30225-0.00879-0.56445-0.04688-0.78076-0.09277l0,0c-1.0708,0.47852-2.2207,0.62695-3.32764,0.63086l0,0   C363.66406,713.64941,360.68604,712.54688,359.79834,712.19824L359.79834,712.19824z"/>
</g>
<g>
	<path d="M305.88135,247.94043c0.23584-3.29053,0.34473-6.43799,0.34473-9.43848l0,0   c-0.00195-26.64063-8.45117-41.95654-10.47803-45.25732l0,0c-0.28857-0.46924-0.43164-0.6709-0.43164-0.6709l0,0l2.4585-1.7207   c0.12695,0.17725,11.45117,16.4624,11.45117,47.64893l0,0c0,3.07275-0.11084,6.29102-0.35059,9.65186l0,0L305.88135,247.94043   L305.88135,247.94043z"/>
</g>
<g>
	<path d="M305.75879,216.84521c0.00049-0.00049,0.00049-0.00049,0.00146-0.00146l0,0l0.00098,0.00146H305.75879L305.75879,216.84521   z M303.67432,214.68945c0.00586-0.00586,11.62744-11.25391,18.88574-17.75635l0,0c2.45264-2.18799,4.29297-3.77979,5.3877-4.45068   l0,0l1.5415,2.57178c-0.57373,0.32715-2.56543,1.98584-4.92725,4.11084l0,0c-2.38965,2.14355-5.28027,4.82617-8.06641,7.44629l0,0   c-5.5376,5.20459-10.65479,10.15576-10.73535,10.23242l0,0L303.67432,214.68945L303.67432,214.68945z"/>
</g>
<g>
	<g>
		<path d="M660.73535,165.47314c-31.9248-15.32373-67.1543-20.66699-81.18359-22.26318l0,0    c-4.00977-0.45752-6.2627-0.6123-6.26953-0.6123l0,0l-0.19238-0.0127l-0.18066-0.05957    c-22.08984-7.36523-44.09863-10.29004-65.13867-10.29004l0,0c-70.90967-0.01514-130.8042,33.30566-144.5835,41.60547l0,0    c-1.96875,1.18506-2.97998,1.84619-2.98193,1.84863l0,0l-1.64258-2.50977c0.125-0.06348,67.09277-43.92041,149.20801-43.94336l0,0    c21.2627,0,43.54492,2.94873,65.92188,10.38721l0,0c4.57227,0.38086,84.1875,6.73291,126.47754,49.36133l0,0    c14.49512,14.63721,24.54395,33.67236,25.38086,58.06592l0,0l-2.99902,0.10352    C721.11523,205.90918,692.69922,180.8418,660.73535,165.47314L660.73535,165.47314z"/>
	</g>
</g>
<g>
	<path d="M741.71875,288.76807"/>
</g>
<g>
	<path d="M763.90234,474.25977c-0.37207-0.02734-4.10254-0.58887-9.17383-6.23926l0,0   c-5.08203-5.65137-11.56934-16.34766-17.78027-36.81885l0,0l-0.01465-0.04736l-0.00879-0.04053   c-11.00781-46.3667-9.8418-45.27637-13.96777-59.71582l0,0c-0.00684-0.00879-1.47949-4.56348-3.8252-9.99365l0,0   c-2.32715-5.42383-5.59082-11.71826-8.80957-14.90918l0,0l2.12207-2.12158c3.78223,3.81006,7.01855,10.26465,9.44336,15.8418l0,0   c2.40332,5.56885,3.91406,10.22852,3.9375,10.30762l0,0c4.19727,14.70313,3.02637,13.60303,14.00586,59.8501l0,0   c10.57422,34.77734,21.65723,40.06055,23.95605,40.79199l0,0c7.70313-4.96777,12.48438-16.49414,15.11133-29.33008l0,0   c2.71289-13.09229,3.29785-27.41895,3.2959-37.16504l0,0c0-7.13965-0.30762-11.79297-0.30762-11.80371l0,0l-0.00195-0.04688   v-0.01465c-0.23926-9.98096-1.62012-19.85938-4.19141-29.49414l0,0c-3.55859-13.31934-9.26172-25.78223-16.83496-37.30615l0,0   c-2.56152-3.9043-5.74805-7.2998-8.69629-11.22949l0,0c-4.44336-5.97021-5.30762-12.28418-7.62988-18.41406l0,0   c-1.94922-5.20801-3.94531-10.38867-6.06641-15.51123l0,0c-3.92969-9.49609-8.2373-18.84326-13.46484-27.63086l0,0   c-14.84082-24.91992-36.90918-40.48193-65.45508-45.45947l0,0c-7.67969-1.33447-15.66699-2.22021-23.56836-2.22021l0,0   c-4.73438,0-9.43652,0.31836-14.02344,1.04395l0,0l-0.47168-2.96289c4.76758-0.75537,9.62598-1.08008,14.49512-1.08203l0,0   c8.12598,0.00195,16.27734,0.90918,24.08105,2.26465l0,0c29.35254,5.08447,52.31934,21.28711,67.52344,46.88379l0,0   c5.33203,8.96875,9.69434,18.4458,13.65625,28.01709l0,0c2.13867,5.16748,4.14746,10.37988,6.10449,15.60498l0,0   c2.43164,6.55908,3.29102,12.44824,7.22363,17.66895l0,0c2.80664,3.75684,6.04395,7.19531,8.79785,11.37891l0,0   c7.74121,11.77588,13.58398,24.54004,17.22559,38.18115l0,0c2.6377,9.87012,4.05078,19.98535,4.29395,30.19434l0,0l0,0   c0.03613,0.57861,0.30957,5.17285,0.31152,11.93799l0,0c-0.00195,9.86963-0.58008,24.3457-3.35742,37.77344l0,0   c-2.80664,13.4043-7.69238,25.89551-17.00977,31.60547l0,0l-0.43066,0.25977L763.90234,474.25977L763.90234,474.25977z"/>
</g>
<g>
	<path d="M657.97754,565.00488c-3.08203-1.74414-5.59961-5.22461-5.55469-10.62109l0,0   c0.00195-1.99805,0.31836-4.26172,1.01172-6.83887l0,0l0.0166-0.06738l0.02539-0.06543   c0.00488-0.01074,1.59082-4.28516,4.00098-11.0625l0,0c2.41113-6.77734,5.64258-16.04004,8.91895-25.97754l0,0   c6.55273-19.8418,13.28711-42.54004,13.99121-53.04004l0,0l2.99316,0.20605c-0.79785,11.24805-7.56348,33.80078-14.13574,53.77148   l0,0c-6.33887,19.23242-12.5,35.91797-12.93164,37.08301l0,0c-0.625,2.34375-0.88965,4.32813-0.88965,5.99121l0,0   c0.04688,4.5293,1.79004,6.65039,4.06445,8.02832l0,0c2.29492,1.34961,5.29395,1.68457,7.34766,1.67578l0,0   c0.71094,0,1.30664-0.03613,1.71582-0.07129l0,0c0.34375-0.0293,0.53809-0.05566,0.59277-0.06348l0,0   c5.45605-1.12207,11.37988-3.92578,16.08398-7.03906l0,0c8.20508-5.41504,15.16406-13.35254,21.30273-21.22363l0,0   c6.95313-8.90918,12.87109-19,15.84082-29.85156l0,0c3.10352-11.29883,3.55078-23.53809,4.75586-35.44629l0,0   c1.10254-10.91406,2.05566-21.77148,2.05566-32.6582l0,0c0-1.25732-0.01074-2.51074-0.03809-3.7666l0,0   c-0.19727-9.49609-0.91895-19.02051-1.22656-28.6123l0,0c-0.10547-3.7334,0.06543-12.98975-0.66211-16.22705l0,0h0.00293   l2.93066-0.63623c0.85059,4.03223,0.60059,13.11963,0.72754,16.76807l0,0c0.30371,9.50244,1.02539,19.03955,1.22656,28.646l0,0   c0.02734,1.27686,0.03809,2.5542,0.04004,3.82813l0,0c-0.00195,11.06055-0.96484,22.02051-2.07227,32.96094l0,0   c-1.20313,11.77441-1.62891,24.17773-4.84668,35.93652l0,0c-3.11816,11.37402-9.25293,21.78027-16.36914,30.90332l0,0   c-6.2168,7.96094-13.34375,16.14844-22.01367,21.88184l0,0c-4.99707,3.29688-11.19531,6.25391-17.19824,7.48633l0,0   l-0.05469,0.01074l-0.02344,0.00391c-0.05566,0.00879-1.14746,0.16992-2.77051,0.16992l0,0   C664.49805,567.0791,661.04297,566.77344,657.97754,565.00488L657.97754,565.00488z"/>
</g>
<g>
	<g>
		<path d="M636.59473,491.24805l-0.07031-0.06348l-0.06543-0.07813c-0.06934-0.12695-4.53711-5.28418-4.58594-12.00195l0,0    c-0.00586-2.51563,0.67969-5.25684,2.50781-7.83203l0,0l0.04004-0.05957l0.05664-0.0625    c0-0.00293,0.21484-0.24316,0.62695-0.76465l0,0c0.41309-0.52344,1.00879-1.31055,1.72852-2.34277l0,0    c1.43945-2.06543,3.36621-5.12207,5.29492-9.03906l0,0c3.8584-7.83789,7.71582-19.1123,7.71387-32.86963l0,0    c0-1.91016-0.07422-3.87061-0.23242-5.87793l0,0l-0.00391-0.05273v-0.05273c-0.00195-0.02539-0.06934-10.6875-0.8418-25.1123l0,0    c-0.77051-14.4209-3.08105-31.40576-5.87109-46.22754l-0.5-1.8335c-1.84668-9.87061-3.00391-17.62305-6.04297-22.27002    l0.20898-0.22998l0.80469-1.73877c4.95898,5.68701,7.40527,14.29785,9.31055,24.3501l0,0    c1.88867,10.0415,3.17383,21.49072,4.05176,32.30469l0,0c1.69922,20.94629,1.86914,39.5127,1.87793,40.67822l0,0    c0.16211,2.06592,0.23926,4.08789,0.23926,6.0625l0,0c-0.01855,27.78564-15.03516,45.73096-16.05469,46.93213l0,0    c-1.41699,2.03711-1.90918,4.06055-1.91406,6.03809l0,0c-0.02246,3.97168,2.18262,7.72852,3.29688,9.29395l0,0    c0.25879,0.36914,0.44238,0.60254,0.52832,0.70898l0,0c1.92285,1.72656,5.23145,2.80273,8.1875,2.78809l0,0    c1.05762,0,2.06445-0.13086,2.93652-0.38184l0,0c6.36426-1.79199,12.99121-7.91797,17.95508-12.83398l0,0    c5.56543-5.47852,9.95117-11.84961,12.35742-19.23047l0,0c4.88281-14.96289,6.63672-30.48486,6.63672-46.17432l0,0    c0-5.77393-0.23633-11.56934-0.6416-17.36475l0,0c-0.83105-11.88818-0.75684-20.63916-2.23828-32.59912l0.16602-1.3335    l0.53613-2.02148c1.46289,11.83594,3.67871,23.62695,4.5293,35.74512l0,0c0.40918,5.85254,0.64746,11.71729,0.64941,17.57373l0,0    c-0.00195,15.91113-1.77832,31.7583-6.78516,47.10498l0,0c-2.58496,7.9248-7.27637,14.70215-13.10547,20.43848l0,0    c-5.05273,4.94043-11.78516,11.40723-19.23242,13.58008l0,0c-1.19043,0.33984-2.46484,0.49609-3.76367,0.49609l0,0    C643.20898,494.87793,639.28906,493.67969,636.59473,491.24805L636.59473,491.24805z"/>
	</g>
</g>
<g>
	<g>
		<path d="M585.15234,464.92188c-0.44141-0.04004-1.38867-0.21289-2.35938-0.99805l0,0    c-1.22754-0.99023-2.20703-2.8916-2.18652-5.8623l0,0c0.00684-3.36523,1.11816-8.24121,4.4043-15.73047l0,0l0.03516-0.08594    l0.05273-0.08691c0,0,0.20117-0.32715,0.58984-1.07617l0,0c0.38965-0.74609,0.95215-1.88574,1.63184-3.42773l0,0    c1.35938-3.07959,3.18262-7.771,5.00977-14.15088l0,0c3.65723-12.7583,7.33105-32.27393,7.33105-59.20215l0,0    c0-16.09521-1.31348-34.84033-4.72852-56.37061l0,0c-1.10449,0.74707-2.65918,1.85107-4.55176,3.34082l0,0    c-3.99219,3.13623-9.49121,7.98096-15.47656,14.78027l0,0c-11.96973,13.59766-25.87695,34.99756-33.56641,66.24121l0,0    l-0.01465,0.06104l-0.02148,0.06494c-0.00977,0.021-7.66113,22.50977-13.74609,35.9873l0,0    c-2.07227,4.52539-3.7998,7.94092-5.47559,9.60254l0,0c-0.39355,0.35547-0.82031,0.72949-1.49121,0.87109l0,0    c-0.75781,0.48047-2.61133,1.46973-5.19531,1.48242l0,0c-4.08691,0.02734-9.40918-2.69727-13.86621-12.2876l0,0    c-2.78809-5.94971-5.375-17.23291-5.38477-31.74512l0,0c-0.01563-29.28418,9.05762-68.26025,51.58301-103.68555l2.16699-0.6665    l1.45117-0.39014c-41.77441,34.81689-52.18848,76.15234-52.20117,104.74219l0,0    c-0.01074,14.12402,2.58887,25.16162,5.09766,30.46777l0,0c4.31348,9.05078,8.46973,10.53564,11.15332,10.56299l0,0    c1.97852,0.01074,3.46777-0.91846,3.71973-1.09912l0,0c0.02734-0.01855,0.02734-0.01855,0.02734-0.01855l0,0l0.43262-0.33154    l0.33984,0.01563c0.02637-0.02246,0.05762-0.0498,0.0918-0.08301l0,0c0.2207-0.20996,0.5625-0.62744,0.94043-1.1958l0,0    c0.76367-1.13916,1.70117-2.87451,2.70801-4.97021l0,0c2.02246-4.2002,4.35156-9.86475,6.54785-15.53369l0,0    c4.21875-10.88916,7.94629-21.76904,8.24121-22.63672l0,0c15.64551-63.48242,56.65723-87.26221,56.85645-87.36914l0,0    l1.87793-1.08691l0.35254,2.14209c3.71191,22.63135,5.13379,42.28369,5.13379,59.10791l0,0    c0.00195,52.74561-13.97266,77.65869-14.94238,79.31982l0,0c-3.17285,7.21973-4.12207,11.76758-4.11426,14.44043l0,0    c0.00684,2.09863,0.53711,2.97266,0.92188,3.38477l0,0c0.38574,0.4082,0.79297,0.47363,0.88867,0.48828l0,0h0.16211    l0.19238,0.05078c0.25195,0.06934,0.56445,0.11133,0.92383,0.1084l0,0c1.73438,0.02539,4.55078-1.01465,7.20215-2.41211l0,0    c2.6709-1.38672,5.24316-3.07813,6.8584-4.20215l0,0c1.0791-0.75195,1.71875-1.23828,1.72266-1.24023l0,0    c24.19043-18.27148,31.00684-50.40088,32.81934-65.32422l0,0c0.61035-4.96826,0.67383-7.96191,0.67383-7.97021l0,0    l0.00195-0.06738l0.00879-0.07324c0.73828-6.27734,1.02148-14.20557,1.01953-22.53516l0,0    c0.00195-12.50195-0.62988-25.92529-1.26172-36.21387l0,0c-0.63086-10.29102-1.26074-17.42432-1.2627-17.44092l0,0    l1.08105,2.53027c0.33398,3.33301,4.44336,25.92969,4.44531,51.12451l0,0c-0.00195,8.38574-0.28223,16.38281-1.03906,22.85107l0,0    c-0.11621,2.57861-1.83105,50.50684-34.67383,75.50879l0,0c-0.02734,0.02051-2.74414,2.08691-6.25391,4.1748l0,0    c-3.54199,2.07324-7.72949,4.24219-11.3418,4.29102l0,0C586.16797,465.09473,585.65234,465.04102,585.15234,464.92188    L585.15234,464.92188z"/>
	</g>
</g>
<g>
	<g>
		<path d="M460.05469,415.89844c-0.24854-0.021-16.42041-3.86621-22.10791-25.5293l0,0    c-0.18994-0.5498-1.11816-3.5498-1.11816-9.0498l0,0c0-13.7417,4.78809-39.99268,41.89697-85.8418l1.5-0.6665l1.8252-0.43213    c-36.81885,45.50342-42.22021,74.06592-42.22021,86.94043l0,0c0,4.19434,0.57129,6.73682,0.83447,7.68066l0,0    c0.08691,0.31494,0.12402,0.41211,0.12402,0.41211l0,0l0.0249,0.06836l0.02051,0.07422    c4.67285,17.771,16.55566,22.35449,19.32373,23.25928l0,0c0.10889,0.03369,0.20068,0.06104,0.27588,0.08301l0,0    c0.46631-0.15234,1.2583-0.65674,2.12939-1.59033l0,0c1.0498-1.09717,2.23193-2.71191,3.43896-4.6499l0,0    c2.41992-3.88135,4.96631-9.05713,7.26221-14.20752l0,0c4.5957-10.30762,8.19727-20.49316,8.21191-20.53467l0,0    c8.80957-23.63379,45.55566-59.19971,45.60938-59.30518l0,0l2.09277,2.15088c-0.00586,0.00586-2.27734,2.21484-5.8418,5.91016l0,0    c-3.56348,3.69775-8.40723,8.8667-13.50879,14.74854l0,0c-10.2041,11.73779-21.44922,26.41797-25.5293,37.51611l0,0    c-0.00684,0.0166-2.78906,7.88574-6.60254,16.84766l0,0c-3.84375,8.98242-8.57813,18.95898-12.96289,23.59619l0,0    c-1.28174,1.31689-2.55469,2.31445-4.16357,2.54443l0,0l-0.26074,0.0332L460.05469,415.89844L460.05469,415.89844z"/>
	</g>
</g>
<g>
	<g>
		<path d="M370.76855,505.88574c-2.52344-1.03809-4.08301-2.92578-5.40771-4.79199l0,0    c-2.2749-3.20313-4.854-6.30469-7.16797-9.68262l0,0c-6.66846-9.74414-11.94971-20.66309-15.25732-32.00098l0,0    c-1.95947-6.72168-3.07666-13.66797-3.07666-20.70801l0,0c0-0.5957,0.00781-1.19141,0.02393-1.78857l0,0    c-0.00049-0.05371-0.00146-0.15234-0.00146-0.29297l0,0c0.021-5.29346-2.53418-67.82813,45.51074-116.97656l2.3335-2.33301    l2.5-0.66699c-44.8335,48.3335-47.36426,115.00439-47.34375,119.97656l0,0c0,0.19922,0.00195,0.28613,0.00195,0.28613l0,0v0.0459    l-0.00195,0.02686c-0.0166,0.57031-0.02295,1.14453-0.02295,1.72266l0,0c0,6.7207,1.06787,13.38477,2.95703,19.87012l0,0    c3.20996,11.00879,8.35596,21.65625,14.85254,31.14453l0,0c2.20605,3.22461,4.77295,6.31348,7.13721,9.6377l0,0    c1.25635,1.7666,2.39697,3.05469,4.10303,3.75684l0,0c0.85889,0.37109,3.55615,0.9668,5.41016,0.9502l0,0    c0.90186,0.02051,1.62354-0.18457,1.64844-0.24316l0,0c7.60986-4.92383,11.43506-19.24609,11.91846-28.47266l0,0    c0.3833-6.41992,0.97852-12.8291,1.7749-19.20898l0,0c2.6333-21.01709,5.91797-42.46777,16.05078-61.5835l0,0    c2.17725-4.10156,4.54346-8.09277,7.08936-11.97217l0,0c8.58057-13.08594,17.52734-26.09766,26.83154-38.69629l0,0    c4.62793-6.26367,9.22266-12.38281,14.28027-18.375l0,0l1.47949,1.80127c-4.98682,5.90723-8.72852,12.10547-13.34619,18.35693l0,0    c-9.2627,12.54297-18.18066,25.50879-26.73828,38.55713l0,0c-2.49414,3.80469-4.81445,7.71533-6.9458,11.73389l0,0    c-9.82666,18.51465-13.10693,39.5835-15.72363,60.55078l0,0c-0.79004,6.31543-1.37695,12.66016-1.7583,19.01367l0,0    c-0.64697,9.74609-4.12451,24.56543-13.25195,30.79395l0,0c-1.04688,0.65332-2.13574,0.72168-3.30908,0.74414l0,0    C374.90283,507.04297,372.22412,506.46289,370.76855,505.88574L370.76855,505.88574z"/>
	</g>
</g>
<g>
	<g>
		<path d="M301.90918,426.89502c-3.93555-9.91699-7.35303-26.89697-9.02246-55.87451l0,0l-0.0083-0.1377l0.0166-0.12939    c0.02539-0.12939,8.02686-66.33252,51.27246-126.19727l0,0l0.03516-0.04785l0.0249-0.03125    c0.12354-0.08789,65.71729-79.48389,159.03027-79.56104l0,0c28.19141-0.00195,53.45508,5.63037,85.46777,24.56152l2,2.1665    l1.89551,2.08252c-31.58496-18.67236-61.68945-25.80811-89.36328-25.81006l0,0    c-80.08252-0.05225-140.10547,60.1084-153.77393,75.1333l0,0c-1.75342,1.92383-2.73145,3.08594-2.91455,3.30322l0,0    c-32.0376,44.3418-44.55713,92.41406-48.79395,113.63379l0,0c-1.26855,6.35254-1.7915,10.26123-1.88672,10.99951l0,0    c1.65381,28.71631,5.0791,45.43896,8.80811,54.80322l0,0c3.79492,9.43701,7.54443,11.125,9.98145,11.12744l0,0    c2.24316,0.0332,4.19434-1.58789,4.56348-1.96143l0,0c0.05225-0.05029,0.05615-0.05664,0.05615-0.05664l0,0l0.0293-0.03125    l0.04199-0.0376c4.1875-3.80371,10.00684-13.32422,15.40234-23.57324l0,0c5.42529-10.26367,10.54736-21.32861,13.77344-28.5293    l0,0c2.15088-4.80078,3.45508-7.87012,3.45703-7.87842l0,0l2.7627,1.17041c-0.00635,0.0166-5.26416,12.40869-12.03516,26.20068    l0,0c-6.8125,13.82324-14.95166,28.91504-21.33252,34.81982l0,0l-0.00098-0.00195    c-0.45703,0.44238-2.92627,2.83105-6.71777,2.87891l0,0C310.51563,439.91699,305.7793,436.75391,301.90918,426.89502    L301.90918,426.89502z"/>
	</g>
</g>
<g>
	<path d="M333.67725,577.83887c-16.08203-5.4834-28.3418-19.16602-34.06104-34.63086l0,0   c-2.35352-6.37598-5.25684-12.93945-7.1499-19.67969l0,0c-1.0376-3.70215-1.45996-7.84375-1.4624-12.04004l0,0   c0.00244-5.83008,0.82227-11.76465,2.05664-16.73926l0,0c1.18164-4.75488,3.09766-9.36328,6.08691-13.38574l0,0   c7.07031-9.47949,19.28662-15.46289,31.14307-15.47949l0,0c0.65088-0.00195,1.29736,0.01855,1.93945,0.05469l0,0   c5.47021,0.32617,12.59277,1.29688,17.70068,4.47656l0,0l-1.5957,2.53906c-4.22998-2.68359-11.04297-3.74023-16.27441-4.02051l0,0   c-0.58984-0.0332-1.17969-0.05176-1.77002-0.0498l0,0c-10.84375-0.01855-22.33203,5.62109-28.73535,14.27051l0,0   c-2.69824,3.62891-4.47412,7.85645-5.58301,12.31836l0,0c-1.17773,4.73242-1.96826,10.46973-1.96826,16.01563l0,0   c0,3.99316,0.41016,7.8877,1.35107,11.22852l0,0c1.80957,6.46191,4.67334,12.96094,7.07471,19.45215l0,0   c5.43018,14.71777,17.15527,27.7207,32.21436,32.8291l0,0c4.23145,1.44141,8.94434,2.04395,13.77637,2.04395l0,0   c7.08496,0.00195,14.41309-1.29688,20.81787-3.05273l0,0l0.79102,2.8916c-6.60205,1.80664-14.16162,3.16016-21.60889,3.16211l0,0   C343.3418,580.04102,338.31104,579.41406,333.67725,577.83887L333.67725,577.83887z"/>
</g>
<g>
	<path d="M459.48975,659.88086c-17.03955-4.69043-40.44238-23.22754-40.56055-23.28906l0,0   c-52.79736-43.57129-54.05908-71.16211-54.04639-73.55566l0,0c-0.00195-0.08887,0-0.14551,0.00244-0.16504l0,0l2.99805,0.12695   c0,0-0.00244,0-0.00244,0.03809l0,0c0.0127,1.33496,0.61084,27.99414,52.93066,71.2207l0,0   c0.00439,0.00195,1.44531,1.13672,3.8877,2.92871l0,0c2.44434,1.79297,5.87744,4.23145,9.81787,6.80664l0,0   c7.86768,5.14941,17.8208,10.84082,25.80273,13.00684l0,0c0.00244-0.00293,0.64648,0.19629,2.05566,0.51465l0,0   c1.40967,0.31738,3.5498,0.74414,6.43164,1.17285l0,0c5.76318,0.8584,14.49951,1.71777,26.31787,1.71777l0,0   c4.72656,0.00195,9.94727-0.13965,15.61328-0.46289l0,0c13.69531-1.33301,27.38574-2.81836,41.09082-4.23828l0,0   c15.53516-1.62891,27.80566-4.5459,37.78027-16.40918l0,0c3.50879-4.17871,6.3125-8.97559,8.80566-13.9375l0,0   c4.23242-8.32227,5.45313-18.14648,12.24316-26.28516l0,0c11.88086-14.11914,26.13965-25.79199,37.57324-39.87402l0,0   c1.64648-1.98633,3.6875-4.23145,4.21094-6.17285l0,0l2.88379,0.82324c-0.89551,3.00879-3.26563,5.35645-4.7666,7.24023l0,0   c-11.70215,14.38867-25.97754,26.07129-37.60645,39.91406l0,0c-6.14355,7.24316-7.39063,16.7207-11.8584,25.70215l0,0   c-2.54883,5.07227-5.45996,10.0752-9.18652,14.51855l0,0c-10.65723,12.72266-24.11523,15.86035-39.77051,17.46387l0,0   c-13.69531,1.41992-27.38965,2.90527-41.16895,4.24512l0,0c-5.78027,0.33301-11.05566,0.47266-15.84375,0.47461l0,0   C471.19629,663.40625,459.58691,659.91211,459.48975,659.88086L459.48975,659.88086z"/>
</g>
<g>
	<path fill="#231F20" d="M600.50977,738.01855c-0.60352-0.78223-0.70996-1.64746-0.71191-2.26758l0,0   c0-0.59473,0.10449-1.00879,0.11719-1.0625l0,0l0.01953-0.08105l0.0293-0.06738c1.70801-3.87988,8.17773-10.24609,8.21191-10.31445   l0,0l0.06152-0.06152l0.08105-0.05273c24.92285-17.11035,37.01953-38.70117,41.49414-48.39258l0,0   c1.48926-3.22949,2.12305-5.10156,2.125-5.10547l0,0l0.02539-0.07617l0.03027-0.05762   c20.87402-40.68555,23.89258-78.11621,23.89258-96.33008l0,0c0-7.4082-0.49414-11.58594-0.49414-11.59668l0,0l1.98438-0.23438   c0.00488,0.0332,0.50781,4.33301,0.50781,11.83105l0,0c0,18.41992-3.04102,56.13965-24.08008,97.18164l0,0   c-0.59863,1.70508-11.47852,31.81055-44.27539,54.37402l0,0c-0.31152,0.31641-1.74902,1.77539-3.33105,3.57715l0,0   c-1.75293,1.98145-3.68652,4.44141-4.35645,5.96094l0,0c-0.00293,0.01855-0.00684,0.04102-0.01172,0.07031l0,0   c-0.0166,0.10645-0.0332,0.2627-0.0332,0.4375l0,0c-0.00293,0.375,0.08691,0.79004,0.28906,1.03809l0,0   c0.20117,0.23828,0.52246,0.50488,1.54199,0.52148l0,0c0.98242,0.00293,2.56836-0.3252,4.8877-1.30371l0,0   c0.00879-0.00684,4.22559-1.67773,9.44824-4.10449l0,0c5.21875-2.42188,11.44141-5.60449,15.32129-8.51855l0,0v0.00195   l1.2002,1.59961c-8.21582,6.14355-25.19336,12.85449-25.21289,12.87109l0,0c-2.45117,1.02832-4.24219,1.4502-5.64453,1.45215l0,0   c-0.02344,0-0.0459,0-0.06836,0l0,0C602.17188,739.30859,601.10352,738.79883,600.50977,738.01855L600.50977,738.01855z"/>
</g>
<g>
	<path fill="#231F20" d="M686.38477,599.93555"/>
</g>
<g>
	<path fill="#231F20" d="M613.87695,756.80273c-0.2832-0.42969-0.32813-0.84863-0.33301-1.23047l0,0   c0.04395-1.71191,1.125-3.9043,1.38867-4.45605l0,0c1.22266-4.8291,3.63281-9.30566,5.90527-13.51367l0,0   c2.41406-4.45605,5.7959-7.01953,9.00684-10.35645l0,0c2.44824-2.53418,4.87695-5.08105,7.26367-7.66309l0,0   c4.63379-5.00977,9.12598-10.14844,13.31152-15.5166l0,0c13.47363-17.28125,22.5791-36.91406,28.78711-57.9082l0,0   c2.79297-9.43848,5.49902-19.12988,6.68262-28.8457l0,0l0.00293,0.00195l1.98438,0.24121   c-1.21387,9.91699-3.9541,19.70801-6.75098,29.16992l0,0c-6.26367,21.17578-15.46973,41.05273-29.12891,58.56934l0,0   c-4.23242,5.42773-8.76172,10.6084-13.4209,15.64453l0,0c-2.40137,2.59766-4.83887,5.1543-7.29395,7.69531l0,0   c-3.36426,3.47168-6.51953,5.89551-8.68457,9.91699l0,0c-2.28516,4.22559-4.61621,8.59668-5.74414,13.125l0,0l-0.02539,0.10254   l-0.0498,0.10254c0,0.00293-0.31543,0.63281-0.63379,1.44043l0,0c-0.28809,0.71289-0.55566,1.60156-0.5957,2.09766l0,0   c0.45898-0.18164,1.41504-0.69922,2.70996-1.7666l0,0l0.07715-0.06152l0.08594-0.04492   c0.00391-0.00293,1.43555-0.74609,4.03125-2.30078l0,0c2.59766-1.55566,6.34082-3.91016,10.90625-7.0957l0,0   c9.13086-6.375,21.55078-16.07813,34.6875-29.3877l0,0c26.27539-26.61914,55.40234-67.63281,66.85742-125.27246l0,0   l1.95996,0.38965c-22.74512,114.34961-114.37207,163.7666-117.43848,165.40039l0,0   c-1.91211,1.48145-3.00586,2.15918-4.17676,2.21387l0,0c-0.01953,0.00098-0.04004,0.00195-0.05957,0.00195l0,0   C614.70801,757.49609,614.14648,757.22656,613.87695,756.80273L613.87695,756.80273z"/>
</g>
<g>
	<path fill="#231F20" d="M681.20703,819.27441c-0.25391-0.68652-0.30957-1.42969-0.31445-2.19824l0,0   c0.00488-2.06152,0.50879-4.31934,0.51465-4.35547l0,0l0.02148-0.10156l0.04492-0.09863   c4.97461-10.94238,9.95898-24.89746,9.96777-24.92285l0,0l0.0127-0.03418l0.02344-0.0498   c23.90723-51.5293,35.83301-130.25098,40.27246-166.3418l0,0c1.4834-12.0332,2.13477-19.30762,2.1377-19.32715l0,0l0.00391-0.0498   l0.01074-0.04883c0.80078-4.17578,1.14746-11.70215,1.14551-21.09668l0,0c0-20.88672-1.66211-51.12988-3.3252-76.13672l0,0   c-1.66406-25.00879-3.32324-44.74121-3.32813-44.78613l0,0l0.00293,0.00195l1.99023-0.16797   c0,0.01367,6.65723,79.1377,6.65918,121.08887l0,0c-0.00195,9.41602-0.3291,16.93945-1.1709,21.41504l0,0   c-0.23633,2.47754-10.80859,117.67285-42.55762,186.22949l0,0c-0.22656,0.62793-5.08105,14.16016-9.97461,24.94727l0,0   c-0.08691,0.43359-0.45508,2.30176-0.45117,3.83496l0,0c0,0.47852,0.03906,0.91895,0.10938,1.22754l0,0   c0.0459,0.21484,0.10254,0.33984,0.1377,0.39746l0,0c0.14746-0.03516,0.61426-0.23047,1.26172-0.82227l0,0   c0.77441-0.68066,1.81348-1.83008,3.12402-3.55957l0,0c0.57227-1.04785,8.27832-15.13379,16.40332-30.63477l0,0   c8.42578-16.06445,17.32715-33.76367,18.99512-39.53027l0,0l1.91992,0.55957c-1.83203,6.23535-10.68848,23.75-19.14453,39.89844   l0,0c-8.44727,16.11621-16.45313,30.72754-16.45313,30.73145l0,0l-0.03711,0.0625l-0.04297,0.05859   c-1.38379,1.82715-2.49609,3.0791-3.43945,3.91504l0,0c-0.94922,0.81738-1.71289,1.2998-2.63574,1.3252l0,0   c-0.01465,0.00098-0.02832,0.00098-0.04297,0.00098l0,0C682.09473,820.70605,681.40918,819.92285,681.20703,819.27441   L681.20703,819.27441z"/>
</g>
<g>
	<path fill="#231F20" d="M696.3291,835.02734c-0.30859-0.4873-0.24316-0.72852-0.26953-1.00879l0,0   c0.03418-2.48438,2.37793-11.23242,5.27344-21.52344l0,0c2.89355-10.22363,6.33398-21.70801,8.52734-28.87207l0,0   c3.00879-9.83105,6.02148-19.66406,9.06934-29.48438l0,0l0.02441-0.07813l0.02734-0.05859   c3.86816-8.0498,6.54395-16.7041,8.81348-25.39063l0,0c4.63965-17.75195,7.51758-35.99316,9.78613-54.22754l0,0   c1.9209-15.44824,3.03809-30.9834,4.62207-46.51758l0,0c1.40332-13.7627,1.65625-27.24902,1.78711-41.10449l0,0   c0.01367-1.86523,0.02246-3.72559,0.02246-5.58398l0,0c0.00195-13.79785-0.44629-27.60938-0.74023-41.43359l0,0   c-0.33594-15.99414-1.00195-31.99609-1.58008-48.00195l0,0c-0.4502-12.51465-1.00879-25.03418-1.57813-37.55176l0,0   c-0.23242-5.07324-0.43555-10.14355-0.72852-15.19727l0,0l1.99609-0.11719c0.29297,5.07813,0.49805,10.15723,0.72852,15.22363l0,0   c0.57129,12.51953,1.12988,25.04297,1.58105,37.57129l0,0c0.5791,15.99707,1.24609,32.00977,1.58008,48.03223l0,0   c0.29297,13.80664,0.74121,27.63086,0.74121,41.47461l0,0c0,1.86719-0.00879,3.73145-0.02344,5.60352l0,0   c-0.13184,13.86621-0.37988,27.41406-1.7959,41.28809l0,0c-1.58008,15.49512-2.69727,31.0459-4.62695,46.56152l0,0   c-2.27246,18.27637-5.16309,36.60645-9.83691,54.48535l0,0c-2.28027,8.72461-4.97852,17.48242-8.91602,25.69336l0,0   c-3.03809,9.79004-6.03711,19.59473-9.03906,29.39746l0,0c-2.19043,7.15332-5.62891,18.62988-8.51563,28.83398l0,0   c-2.55078,8.95703-4.67969,17.13867-5.11621,20.0918l0,0c2.23047-0.7832,4.64844-2.60352,6.25391-4.37305l0,0l0.06738-0.0752   l0.08203-0.05859c0.00586-0.00879,2.75879-2.00293,7.24316-5.82715l0,0c4.4873-3.8252,10.67871-9.45605,17.49414-16.6748l0,0   c13.62988-14.4375,29.73828-35.22363,39.66895-60.55371l0,0l0.01953-0.05176l0.02539-0.04688   c0-0.00293,0.43848-0.83691,1.22754-2.60645l0,0c0.79102-1.77051,1.9248-4.45703,3.29004-8.10449l0,0   c2.73145-7.29395,6.38574-18.43164,10.06348-33.76855l0,0c7.35645-30.6709,14.80664-78.13574,15.1416-145.24023l0,0   c0-0.01465,0.08105-6.18262,0.0791-16.57617l0,0c0.00195-36.5459-1.02637-125.17676-10.20605-179.58203l0,0   c-3.04395-18.11621-7.05664-32.45996-12.03027-39.58936l0,0l-0.07324-0.10156l-0.04297-0.11865   c-0.00391-0.00195-0.64453-1.72656-1.91016-4.35693l0,0c-1.26563-2.62793-3.1416-6.13818-5.56934-9.63037l0,0   c-4.86133-7.02002-11.88965-13.81348-20.4209-13.78125l0,0c-1.56543,0-3.19043,0.22217-4.88281,0.71387l0,0l-0.55859-1.92334   c1.86914-0.54102,3.68652-0.79102,5.44141-0.78906l0,0c9.66797,0.03271,17.05859,7.44678,22.06445,14.63672l0,0   c4.64648,6.69287,7.28516,13.3335,7.66211,14.30762l0,0c5.29395,7.73145,9.21484,22.13135,12.29297,40.30029l0,0   c3.07422,18.23535,5.23438,40.22998,6.75,62.81592l0,0c3.03125,45.16846,3.48438,92.70361,3.48438,117.09814l0,0   c0,10.4043-0.08203,16.60059-0.08203,16.5957l0,0c-0.65527,132.31836-28.94043,188.66406-29.92188,190.57617l0,0   c-19.66113,50.03906-62.81055,82.21875-64.98926,83.83203l0,0c-2.14258,2.29297-5.28418,4.62695-8.49219,5.24023l0,0   l-0.61621,0.11133L696.3291,835.02734L696.3291,835.02734z"/>
</g>
<g>
	<path d="M878.13965,672.51367c-8.50098-3.71191-15.43848-7.41211-15.46094-7.42285l0,0l-0.04102-0.02246l-0.03223-0.02148   c-43.06641-26.26563-65.29785-68.08594-65.37109-68.19824l0,0l2.64746-1.4082c0.00684,0.00391,1.34961,2.53711,4.07129,6.80664l0,0   c2.71875,4.27051,6.79395,10.24414,12.19141,17.02344l0,0c10.78906,13.5498,26.86719,30.31348,47.96777,43.18262l0,0   c0.41211,0.21777,7.09961,3.7627,15.22852,7.3125l0,0c8.3457,3.66797,18.34473,7.28223,23.93262,7.24805l0,0   c0.45703,0,0.88379-0.02441,1.27734-0.06934l0,0l0.08301-0.01074h0.08691c0,0,0.71191,0.00195,1.68945-0.06348l0,0   c0.97461-0.0625,2.20313-0.19922,3.08789-0.43066l0,0c0.16504-0.03906,0.31641-0.08496,0.44629-0.13086l0,0   c-0.02051-0.0166-0.04102-0.03418-0.06348-0.05176l0,0c-0.54102-0.43945-1.56641-1.06348-3.17773-1.82227l0,0   c-0.08691-0.11035-54.72949-27.78418-71.14355-59.43848l0,0l2.66504-1.37207   c11.55664,22.58496,45.12207,44.14063,61.13281,53.33789l0,0c5.33887,3.08105,8.70117,4.79688,8.66699,4.78223l0,0   c1.69434,0.7998,2.88379,1.49023,3.73926,2.1748l0,0c0.81738,0.68555,1.50195,1.40234,1.5498,2.5918l0,0   c0.00781,0.72168-0.375,1.3623-0.77344,1.72266l0,0c-0.40332,0.37695-0.83203,0.5957-1.27051,0.7793l0,0   c-0.875,0.35156-1.8457,0.53516-2.80078,0.66797l0,0c-1.68457,0.22656-3.29883,0.25-3.66992,0.25488l0,0   c-0.48828,0.05176-0.99707,0.07617-1.52539,0.07813l0,0C896.62402,679.97754,886.67871,676.21777,878.13965,672.51367   L878.13965,672.51367z"/>
</g>
<g>
	<path d="M916.6582,659.2666c-4.91504-0.07227-14.40039-3.26367-23.04102-6.4248l0,0   c-8.61914-3.18164-16.13477-6.35352-16.13477-6.35352l0,0c-46.10352-19.08203-73.35254-77.98828-73.45508-78.08789l0,0h0.00195   l2.71777-1.26758c0.00195,0.00195,0.41211,0.8877,1.23926,2.51074l0,0c0.82715,1.62207,2.06445,3.96777,3.68555,6.84375l0,0   c3.24902,5.75098,8.05176,13.61914,14.25684,22.05762l0,0c12.40625,16.8877,30.44238,36.01953,52.70801,45.1748l0,0   c0.01758,0.00391,7.47266,3.15332,16.01953,6.30664l0,0c8.48828,3.1582,18.29199,6.28516,22.06641,6.24023l0,0h0.06348   l0.06738,0.00586c0.00391-0.00195,1.43457,0.12598,3.20703,0.12598l0,0c1.15723,0,2.45313-0.05566,3.50391-0.22559l0,0   c0.7002-0.09277,1.28516-0.29395,1.59473-0.4375l0,0c-5.21289-6.32422-59.54004-72.4873-87.48242-119.84082l0,0   c-9.77539-16.64453-16.39648-30.7998-16.45801-39.96387l0,0c0-0.02148,0-0.05664,0-0.10547l0,0   c-0.1582-1.46973-2.02051-18.64648-4.6416-38.71875l0,0c-2.7334-20.95898-6.30957-45.08936-9.57227-57.42334l0,0   c-0.91113-3.50098-1.86133-6.08594-2.54102-7.09326l0,0l-0.16895-0.25781l-0.05469-0.3042   c-0.00684-0.02148-1.63477-9.32813-4.55176-21.2959l0,0c-2.91406-11.96289-7.12891-26.56982-12.19727-36.94629l0,0   c-3.33594-6.94092-7.20605-11.86133-10.58887-12.93115l0,0l0.96582-2.83887c4.94336,1.76221,8.7832,7.30078,12.31836,14.45459l0,0   c3.50293,7.17773,6.53809,16.10449,9.05566,24.84229l0,0c4.64453,16.14844,7.49414,31.64014,7.90137,33.91113l0,0   c0.99316,1.67334,1.8418,4.24512,2.76367,7.69336l0,0c0.95898,3.62891,1.92676,8.17773,2.89258,13.32617l0,0   c1.92969,10.29199,3.83984,22.97363,5.53027,35.32031l0,0c3.37988,24.69238,5.88184,48.03516,5.88379,48.04395l0,0l0.01172,0.11719   l-0.00684,0.12598c0.00195,0,0,0.00684,0.00195,0.08008l0,0c-0.03418,5.81641,3.5166,15.34277,9.42578,26.60059l0,0   c5.89746,11.28418,14.09961,24.39746,23.22168,37.875l0,0c18.24219,26.96094,40.16309,55.38477,54.77344,73.7998l0,0   c9.74316,12.27832,16.21582,20.08301,16.23047,20.10254l0,0l0.16309,0.19727l0.08887,0.23926   c0.12109,0.33008,0.19922,0.68359,0.19922,1.06152l0,0c0.01758,1.02637-0.6416,1.88574-1.29102,2.30273l0,0   c-0.66211,0.44629-1.38281,0.68066-2.15039,0.86328l0,0c-1.53027,0.3457-3.28809,0.42383-4.82129,0.42578l0,0   C918.36914,659.39844,916.97656,659.29297,916.6582,659.2666L916.6582,659.2666z"/>
</g>
<g>
	<path d="M825.75098,403.72314c-6.38672-0.00244-13.04199-2.43701-18.96094-7.11035l0,0l1.85742-2.35498   c5.46191,4.31348,11.48633,6.46582,17.10352,6.46582l0,0c7.75879-0.02783,14.78711-4.00293,18.99316-12.54199l0,0   c5.88574-12.02051,6.81445-28.23633,6.80176-42.32813l0,0c0-1.42822-0.00684-2.8374-0.01953-4.20117l0,0   c-0.00391-0.27148-0.00586-0.54297-0.00586-0.81445l0,0c0-1.11182,0.01855-2.22803,0.01855-3.33545l0,0   c0.01074-4.37842-0.32324-8.52148-2.74023-11.58105l0,0c-2.93457-3.68701-6.15332-4.38086-10.18066-4.42139l0,0   c-2.89355-0.00439-6.07617,0.45215-9.36816,0.45898l0,0c-0.43359,0-0.86816-0.00879-1.30566-0.02832l0,0   c-8.51074-0.34229-13.54395-4.93408-16.18164-9.30811l0,0c-2.66797-4.37793-3.18066-8.54932-3.19336-8.61426l0,0   c-0.27734-1.71924-0.3916-3.48584-0.3916-5.25732l0,0c0-3.18457,0.37207-6.38623,0.88965-9.32715l0,0   c1.42578-8.1167,4.23535-16.2334,7.35547-23.74414l0,0c1.51074-3.63916,3.67578-7.24854,6.63477-10.01074l0,0   c2.94922-2.75977,6.76758-4.65625,11.32227-4.64941l0,0c0.29102,0,0.58203,0.0083,0.87012,0.02344l0,0   c4.40625,0.26318,6.70313,2.79248,9.44434,4.03809l0,0c2.76855,1.31836,4.94922,1.79248,6.63379,1.79248l0,0   c2.7793-0.02393,4.32715-1.20459,5.45605-2.63965l0,0c1.10254-1.43457,1.59668-3.15186,1.73438-3.7876l0,0   c0.04102-0.18115,0.0498-0.24561,0.0498-0.24561l0,0l0.0166-0.10352l0.03027-0.09912   c3.52734-11.50781,3.98145-35.16797,3.9668-45.0083l0,0c0-2.50781-0.02539-4.125-0.03125-4.46143l0,0   c-2.0332-18.59473-9.20801-28.91455-16.56152-34.81348l0,0c-7.36914-5.89941-15.04785-7.33838-18.03027-7.67676l0,0   c-0.85059-0.09717-1.27344-0.10352-1.27344-0.10352l0,0l-0.0625-0.00195l-0.0625-0.00684   c-1.24512-0.12891-2.51172-0.18945-3.80078-0.1875l0,0c-18.37207-0.04736-40.33008,12.65674-50.0332,19.04492l0,0   c-2.8125,1.84473-4.59375,3.13672-5.0166,3.44824l0,0c-1.2627,1.30664-1.68164,2.5498-1.69727,3.90332l0,0   c-0.0293,2.37012,1.62109,5.21875,3.69824,7.44873l0,0c3.36523,3.68018,7.01074,8.19189,7.03418,14.09375l0,0   c0,0.07764,0,0.15918-0.00195,0.2583l0,0c-0.09082,5.50537-3.47754,9.37695-7.52637,11.94531l0,0   c-4.06738,2.60742-8.93457,4.15869-12.72949,5.32227l0,0c-5.87598,1.79248-11.0791,2.48389-15.59766,2.48389l0,0   c-14.40332,0-21.7207-7.01074-21.88477-7.17676l0,0l-0.30078-0.29297l-0.10352-0.40332   c-0.875-3.43213-4.06445-8.67871-7.02832-12.89307l0,0c-2.96289-4.24023-5.67188-7.52393-5.67773-7.53076l0,0l-0.19238-0.23047   l-0.08594-0.28662c-0.22168-0.73242-0.32129-1.47559-0.32129-2.21289l0,0c0.05176-3.87793,2.46582-7.44824,4.6416-10.97119l0,0   c2.23047-3.48828,4.22754-6.9209,4.17969-9.49561l0,0c0-0.47607-0.05762-0.92188-0.17676-1.35498l0,0   c-0.32715-1.46533-2.62598-3.42383-5.5-4.91064l0,0c-2.84473-1.52539-6.08984-2.7168-8.08691-3.49072l0,0   c-4.79199-1.86133-12.47363-3.65186-19.59473-3.64551l0,0c-6.15527-0.0127-11.79395,1.35742-14.96094,4.68408l0,0v0.00244   l-2.16113-2.0835c4.15137-4.25977,10.58496-5.58936,17.12207-5.60205l0,0c7.61719,0.00635,15.50977,1.85303,20.67676,3.84814l0,0   c1.96289,0.76025,5.32813,1.98877,8.41992,3.64111l0,0c3.06445,1.68701,6.02832,3.65869,6.97461,6.75049l0,0   c0.2002,0.71777,0.28613,1.44385,0.28613,2.16113l0,0c-0.04688,3.94287-2.45996,7.56738-4.64063,11.09229l0,0   c-2.23242,3.49268-4.23145,6.89697-4.17969,9.37451l0,0c0,0.38037,0.03906,0.73828,0.12305,1.0874l0,0   c1.50293,1.87256,10.65039,13.19092,12.95508,20.85596l0,0c0.18945,0.16113,0.47754,0.39258,0.86426,0.67432l0,0   c0.80371,0.58789,2.03223,1.3833,3.67969,2.18457l0,0c3.29688,1.60107,8.26953,3.22363,14.97266,3.22559l0,0   c4.21289,0,9.1123-0.64209,14.72266-2.35498l0,0c3.74512-1.13965,8.38379-2.65869,11.98242-4.9751l0,0   c3.62012-2.35498,6.06055-5.26172,6.14941-9.46973l0,0c0-0.06445,0.00195-0.1333,0.00195-0.21094l0,0   c0.02344-4.54004-2.93848-8.48535-6.24414-12.06201l0,0c-2.31445-2.54248-4.45605-5.81934-4.48828-9.48047l0,0   c-0.01465-2.10498,0.8125-4.29199,2.64355-6.09521l0,0l0.07324-0.07568l0.08887-0.06445   c0.13086-0.03467,30.75781-23.07422,56.94043-23.1626l0,0c1.37207,0,2.7334,0.06396,4.08398,0.20215l0,0   c0.97656,0.04053,8.98242,0.49512,17.5957,5.98193l0,0c9.11426,5.78711,18.75488,17.31885,21.10352,39.35449l0,0l0.00391,0.06445   l0.00195,0.06689c0,0.00879,0.03223,1.73438,0.03418,4.58301l0,0c-0.0166,9.96582-0.36816,33.43311-4.07129,45.79395l0,0   c-0.09277,0.48926-0.49609,2.40381-1.75195,4.41797l0,0c-1.38184,2.26416-4.12598,4.69678-8.43164,4.6709l0,0   c-2.24902,0-4.86035-0.62695-7.92285-2.0835l0,0c-3.41895-1.68896-5.18359-3.62598-8.30957-3.75098l0,0   c-0.24219-0.01318-0.48047-0.01709-0.71582-0.01709l0,0c-3.71289,0.00635-6.72852,1.48193-9.27832,3.84131l0,0   c-2.5332,2.35938-4.52246,5.61719-5.91016,8.96777l0,0c-3.07031,7.39258-5.80176,15.32178-7.16992,23.11279l0,0   c-0.49609,2.81396-0.84473,5.8584-0.84473,8.80811l0,0c0,1.64209,0.10742,3.25342,0.36133,4.83105l0,0   c0.00293,0,0.02246,0.18506,0.10156,0.58594l0,0c0.07813,0.39844,0.20703,0.98242,0.41211,1.68896l0,0   c0.40918,1.41162,1.11328,3.30957,2.27051,5.20166l0,0c2.35254,3.7832,6.29785,7.52393,13.75098,7.875l0,0   c0.38965,0.01709,0.78223,0.02393,1.17676,0.02393l0,0c3.00586,0.00391,6.17969-0.45264,9.36816-0.45703l0,0   c4.36133-0.04102,9.00586,1,12.54199,5.57178l0,0c3.1416,4.04004,3.37012,8.97217,3.38086,13.43018l0,0   c-0.00195,1.14404-0.02148,2.26221-0.02148,3.33545l0,0c0,0.25635,0.00195,0.5083,0.00586,0.771l0,0   c0.01367,1.3877,0.02246,2.80566,0.02246,4.24463l0,0c-0.01367,14.22314-0.85156,30.78369-7.1084,43.64453l0,0   c-4.58105,9.43848-12.81055,14.22559-21.6123,14.2251l0,0C825.80273,403.72314,825.77637,403.72314,825.75098,403.72314   L825.75098,403.72314z"/>
</g>
<g>
	<path fill="#231F20" d="M410.38379,458.93555c0.00098-0.00195,27.50098-50.5,73.99902-34   c5.63477,1.99805,11.17383,5.11523,15.91406,8.75195c4.5,3.45117,8.25391,7.5,11.29492,12.26758   c2.32422,3.63867,3.79297,14.20898,9.62109,10.82227c8.69531-5.05469,2.70313-18.91602-2.82813-23.3418   c-9.39648-7.51758-17.44336-15.3457-29.12891-19.38281c-30.18359-10.42578-65.63379,0.23047-75.80176,32.13086   C412.25488,449.94531,412.23828,455.5293,410.38379,458.93555z"/>
</g>
<g>
	<path fill="#231F20" d="M631.63477,516.93555c0,0,7-6,7.75-7.25s2.25-12,0.25-24.5s-13-47.75-59.5-19.75l-3.5,8.25   c0,0,29.25-22.25,47.5,0.75C624.13477,474.43555,635.38477,487.43555,631.63477,516.93555z"/>
	<path fill="#231F20" d="M631.13867,516.87109c0.5293-4.19531,0.75977-8.05176,0.75977-11.58105l0,0   c-0.00195-15.87988-4.61621-25.14648-6.89648-28.76367l0,0c-0.75977-1.20605-1.24512-1.7627-1.25977-1.78125l0,0   c-6.13672-7.71973-13.44141-10.22559-20.50391-10.23145l0,0c-6.83008-0.00391-13.41895,2.38379-18.29102,4.78418l0,0   c-4.87305,2.39648-8.00293,4.77832-8.00977,4.78418l0,0l-1.5,1.1416l4.29883-10.13477l0.13867-0.08203   c12.66992-7.63379,22.75879-10.61328,30.80566-10.61328l0,0c21.68359,0.03613,27.99121,21.5625,29.44727,30.71289l0,0   c0.7373,4.625,1.00098,9.0127,1.00293,12.77637l0,0c-0.00195,3.23145-0.19434,6.00195-0.45117,8.07422l0,0   c-0.26855,2.09277-0.53711,3.39355-0.86621,3.98535l0,0c-0.49316,0.78711-2.3877,2.52148-4.25098,4.20703l0,0   c-1.85059,1.66211-3.60254,3.16406-3.60254,3.16406l0,0l-0.3252-0.37793l0.3252,0.37793l-0.98633,0.8457L631.13867,516.87109   L631.13867,516.87109z M624.5127,474.10742c0.06055,0.06738,8.38867,9.74414,8.38477,31.18262l0,0   c0.00195,3.20898-0.1875,6.67871-0.61328,10.4209l0,0c0.67676-0.58887,1.62891-1.42383,2.6084-2.30469l0,0   c1.82422-1.62598,3.80469-3.51465,4.0625-3.97852l0,0c0.14258-0.19922,0.49805-1.58789,0.73242-3.59375l0,0   c0.25-2.02539,0.44336-4.75977,0.44336-7.95117l0,0c0-3.71582-0.2627-8.05469-0.99121-12.61914l0,0   c-1.45996-9.06641-7.62305-29.90723-28.45898-29.87109l0,0c-7.7666-0.00195-17.64648,2.87402-30.14844,10.38574l0,0   l-2.75684,6.49609c3.72363-2.49707,14.15039-8.74805,25.46289-8.76172l0,0c0.01074,0,0.02246,0,0.03418,0l0,0   C610.55957,463.5127,618.22949,466.17773,624.5127,474.10742L624.5127,474.10742z"/>
</g>
<g>
	<path d="M627.38184,395.66064c-8.12695-0.00439-14.99902,3.19189-17.88965,4.78467l0,0   c-0.96582,0.52979-1.46484,0.86475-1.46484,0.86475l0,0l-1.11133-1.66455c0.08496-0.04395,8.92969-5.97119,20.46582-5.98389l0,0   c11.92383-0.04639,26.57227,6.56445,36.52051,31.94971l0,0l-1.8623,0.73242   C652.18262,401.46533,638.52539,395.70703,627.38184,395.66064L627.38184,395.66064z"/>
</g>
</svg>